<svg width="35" height="35" viewBox="0 0 35 35" fill="none" xmlns="http://www.w3.org/2000/svg">
<g opacity="0.72">
<path d="M1.09375 6.5625C1.09375 3.54219 3.54219 1.09375 6.5625 1.09375H28.4375C31.4578 1.09375 33.9062 3.54219 33.9062 6.5625V28.4375C33.9062 31.4578 31.4578 33.9062 28.4375 33.9062H6.5625C3.54219 33.9062 1.09375 31.4578 1.09375 28.4375V6.5625ZM6.5625 3.28125C4.75032 3.28125 3.28125 4.75032 3.28125 6.5625V10.9375H10.9375V3.28125H6.5625ZM12.0312 3.28125V10.9375H22.9688V3.28125H12.0312ZM24.0625 3.28125V10.9375H24.9995L22.9688 12.9744V12.0312H12.0312V17.1889C11.6674 17.1442 11.298 17.1566 10.9375 17.2261V12.0312H3.28125V25.4969L9.91166 18.9504C10.8359 18.0378 12.3176 18.0235 13.2594 18.918L15.6091 21.1497C15.8243 21.3541 16.1634 21.3495 16.373 21.1393L31.6366 5.82953C31.3036 4.3702 29.9977 3.28125 28.4375 3.28125H24.0625ZM11.1953 20.7092L3.28312 28.5494C3.34213 30.3098 4.78777 31.7188 6.5625 31.7188H10.9375V24.0625H9.36514L10.4689 22.9688H10.9375V22.5044L11.5906 21.8573L12.0312 22.2708V22.9688H12.7752L13.5574 23.7027C13.7005 23.8369 13.8519 23.9568 14.01 24.0625H12.0312V31.7188H22.9688V24.0625H17.8945C18.0774 23.9403 18.2512 23.799 18.4132 23.6388L19.0908 22.9688H22.9688V19.1338L24.0625 18.0521V22.9688H31.7188V8.94243L17.6441 22.8611C16.7241 23.7709 15.2494 23.7903 14.3058 22.905L11.9544 20.6989C11.7398 20.4975 11.4043 20.5021 11.1953 20.7092ZM31.7188 24.0625H24.0625V31.7188H28.4375C30.2497 31.7188 31.7188 30.2497 31.7188 28.4375V24.0625Z" fill="#212121"/>
</g>
</svg>
