<svg width="35" height="35" viewBox="0 0 35 35" fill="none" xmlns="http://www.w3.org/2000/svg">
<path d="M7.7876 2.1875H27.2372C27.8968 2.1875 28.4375 2.74531 28.4375 3.43437V9.7672C28.4375 10.2047 28.2104 10.6203 27.8428 10.8391L23.6797 13.3547L21.9187 14.3128V14.9078H13.1687V14.3068L11.4188 13.3547L7.16953 10.8391C6.79428 10.6203 6.5625 10.2047 6.5625 9.7672V3.43437C6.5625 2.74531 7.11435 2.1875 7.7876 2.1875Z" fill="#0074BA"/>
<path d="M11.4188 13.3547V2.1875H14.2625L14.2734 14.9078L11.4188 13.3547Z" fill="#D3D3D3"/>
<path d="M20.825 14.9078V2.1875H23.6797V13.3547L20.825 14.9078Z" fill="#D3D3D3"/>
<path d="M20.825 2.1875H14.2625V14.9078H20.825V2.1875Z" fill="#F8312F"/>
<path d="M17.5437 32.8126C23.6085 32.8126 28.525 27.7737 28.525 21.5579C28.525 15.3421 23.6085 10.3032 17.5437 10.3032C11.479 10.3032 6.5625 15.3421 6.5625 21.5579C6.5625 27.7737 11.479 32.8126 17.5437 32.8126Z" fill="#FFB02E"/>
<path d="M17.5547 31.4563C14.9734 31.4563 12.5453 30.4281 10.7297 28.5578C8.90313 26.6875 7.89688 24.2047 7.89688 21.5578C7.89688 18.9109 8.90313 16.4281 10.7297 14.5578C14.4922 10.6969 20.6172 10.6969 24.3906 14.5578C28.1531 18.4187 28.1531 24.6969 24.3906 28.5578C22.5531 30.4281 20.125 31.4563 17.5547 31.4563ZM17.5438 13.0047C15.4109 13.0047 13.2672 13.8359 11.6484 15.5094C10.0734 17.1281 9.20938 19.2719 9.20938 21.5578C9.20938 23.8438 10.0734 25.9875 11.6484 27.6063C13.2234 29.225 15.3234 30.1109 17.5438 30.1109C19.775 30.1109 21.8641 29.225 23.4391 27.6063C26.6875 24.2703 26.6875 18.8453 23.4391 15.5094C21.8203 13.8359 19.6875 13.0047 17.5438 13.0047Z" fill="#FCD53F"/>
<path d="M18.2109 17.1282L19.1188 19.0095C19.2281 19.2282 19.4359 19.3923 19.6766 19.4251L21.7 19.7314C22.3016 19.8189 22.5531 20.5845 22.1047 21.022L20.7047 22.422C20.4969 22.6298 20.4313 22.936 20.5188 23.2204L21.1641 25.0907C21.3828 25.7142 20.7703 26.3048 20.1688 26.0423L17.8281 24.9923C17.6422 24.9048 17.4234 24.9048 17.2375 24.9923L14.8969 26.0423C14.3063 26.3048 13.6828 25.7142 13.9016 25.0907L14.5469 23.2204C14.6453 22.936 14.5688 22.6298 14.3609 22.422L12.9609 21.022C12.5234 20.5845 12.7641 19.8189 13.3656 19.7314L15.3891 19.4251C15.6297 19.3923 15.8375 19.2392 15.9469 19.0095L16.8547 17.1282C17.15 16.5595 17.9375 16.5595 18.2109 17.1282Z" fill="#6D4534"/>
</svg>
