<svg width="37" height="37" viewBox="0 0 37 37" fill="none" xmlns="http://www.w3.org/2000/svg">
<g opacity="0.72">
<path d="M32.375 32.375V22.2419L35.4501 19.9665C36.99 18.8269 37.3147 16.6548 36.1752 15.1148L34.4449 12.7765C33.9199 12.067 33.1756 11.6154 32.375 11.4462V10.4062C32.375 10.0996 32.2532 9.8055 32.0363 9.58866L23.9426 1.49491C23.7258 1.27807 23.4317 1.15625 23.125 1.15625H8.09375C6.17801 1.15625 4.625 2.70926 4.625 4.625V32.375C4.625 34.2907 6.17801 35.8438 8.09375 35.8438H28.9062C30.822 35.8438 32.375 34.2907 32.375 32.375ZM6.9375 32.375V4.625C6.9375 3.98642 7.45517 3.46875 8.09375 3.46875H21.9688V9.83618C21.9688 10.7896 22.7417 11.5625 23.6951 11.5625H30.0625V11.7584C29.9011 11.8422 29.7441 11.9398 29.5932 12.0514L26.57 14.2885C26.4991 14.0494 26.2777 13.875 26.0156 13.875H10.9844C10.6651 13.875 10.4062 14.1338 10.4062 14.4531C10.4062 14.7724 10.6651 15.0312 10.9844 15.0312H25.5663L22.4411 17.3438H10.9844C10.6651 17.3438 10.4062 17.6026 10.4062 17.9219C10.4062 18.2412 10.6651 18.5 10.9844 18.5H20.8786L17.7534 20.8125H10.9844C10.6651 20.8125 10.4062 21.0713 10.4062 21.3906C10.4062 21.7099 10.6651 21.9688 10.9844 21.9688H16.1909L13.1308 24.2331C13.11 24.2485 13.0897 24.2646 13.0701 24.2812H10.9844C10.6651 24.2812 10.4062 24.5401 10.4062 24.8594C10.4062 25.1787 10.6651 25.4375 10.9844 25.4375H12.5259L10.8669 30.877C10.7601 31.2273 10.8255 31.6076 11.0434 31.9021C11.2613 32.1965 11.6058 32.3703 11.9721 32.3705L18.299 32.3749C18.5469 32.3751 18.7883 32.2956 18.9876 32.1481L30.0625 23.9531V32.375C30.0625 33.0136 29.5448 33.5312 28.9062 33.5312H8.09375C7.45517 33.5312 6.9375 33.0136 6.9375 32.375ZM23.6951 10.4062C23.3802 10.4062 23.125 10.151 23.125 9.83618V3.94768L29.5836 10.4062H23.6951ZM30.335 20.8746L27.2349 16.6733L28.5884 15.6717L31.6942 19.8689L30.335 20.8746ZM15.6931 25.2138L26.3054 17.3611L29.4056 21.5624L18.903 29.334L15.6931 25.2138ZM14.7911 25.9373L17.9733 30.0219L17.9189 30.0622L14.896 30.0601L13.9313 28.7564L14.7911 25.9373Z" fill="#212121"/>
</g>
</svg>
