<svg width="16" height="16" viewBox="0 0 16 16" fill="none" xmlns="http://www.w3.org/2000/svg">
<g clip-path="url(#clip0_1295_2688)">
<path d="M6.41656 0C2.8771 0 0 2.86475 0 6.38901C0 9.91327 2.8771 12.778 6.41656 12.778C9.95602 12.778 12.8331 9.91327 12.8331 6.38901C12.8331 2.86475 9.94912 0 6.41656 0ZM6.41656 11.3972C3.64295 11.3972 1.37991 9.15071 1.37991 6.38214C1.37991 3.61357 3.63605 1.36711 6.41656 1.36711C9.19707 1.36711 11.4532 3.61357 11.4532 6.38214C11.4532 9.15071 9.19707 11.3972 6.41656 11.3972Z" fill="#D2D2D2"/>
<path d="M15.7929 14.8323L12.3155 11.3699C12.0464 11.102 11.6118 11.102 11.3427 11.3699C11.0736 11.6378 11.0736 12.0706 11.3427 12.3385L14.82 15.801C14.958 15.9384 15.1305 16.0002 15.3099 16.0002C15.4893 16.0002 15.6618 15.9315 15.7998 15.801C16.0689 15.5331 16.0689 15.1002 15.7998 14.8323H15.7929Z" fill="#D2D2D2"/>
</g>
<defs>
<clipPath id="clip0_1295_2688">
<rect width="16" height="16" fill="white"/>
</clipPath>
</defs>
</svg>
