<svg width="35" height="35" viewBox="0 0 35 35" fill="none" xmlns="http://www.w3.org/2000/svg">
<g opacity="0.72">
<path d="M3.89736 18.8149C3.89736 19.1727 3.60936 19.4628 3.2541 19.4628C2.89884 19.4628 2.61085 19.1727 2.61085 18.8149C2.61085 18.457 2.89884 18.167 3.2541 18.167C3.60936 18.167 3.89736 18.457 3.89736 18.8149Z" fill="#212121"/>
<path d="M21.4497 14.1701C20.4636 14.422 19.3374 14.5844 18.0867 14.5844C16.834 14.5844 15.7061 14.4214 14.7188 14.1689L12.1099 19.6266C13.7987 20.2306 15.8343 20.6824 18.0867 20.6824C20.3371 20.6824 22.371 20.2315 24.0588 19.6283L21.4497 14.1701Z" fill="#212121"/>
<path d="M5.4025 15.2264C5.2189 15.2051 5.0323 15.1942 4.84332 15.1942C2.16843 15.1942 0 17.3783 0 20.0726C0 22.5398 1.81832 24.5792 4.17878 24.9055V26.1706C4.17878 27.1809 4.99194 28 5.99502 28H12.0326C13.0357 28 13.8488 27.1809 13.8488 26.1706V24.3137H22.3034V26.1706C22.3034 27.1809 23.1165 28 24.1196 28H30.1572C31.1603 28 31.9734 27.1809 31.9734 26.1706V24.9224H33.4728C33.9811 24.9224 34.6151 24.6099 34.8862 23.9995C35.0423 23.6482 35.0191 23.2733 34.9285 22.9713C34.8371 22.6669 34.6594 22.3728 34.4154 22.1577C34.2774 22.036 33.6404 21.4251 33.0189 20.8256C32.7124 20.5299 32.4153 20.2426 32.1948 20.0291L31.9054 19.7488C31.3084 12.5025 25.3451 7 17.9732 7C12.2484 7 7.5052 10.3391 5.4025 15.2264ZM4.95355 16.4154C4.48686 17.843 4.23555 19.3799 4.23555 20.9873C4.23555 21.5511 4.2213 22.1049 4.20708 22.6576C4.20309 22.8123 4.19912 22.9669 4.19545 23.1216H4.17878V23.6703C2.48997 23.3558 1.21083 21.8647 1.21083 20.0726C1.21083 18.0519 2.83715 16.4138 4.84332 16.4138C4.8802 16.4138 4.91695 16.4143 4.95355 16.4154ZM11.2499 11.1042C11.9412 11.8006 14.3694 13.3648 18.0867 13.3648C21.8041 13.3648 24.2322 11.8006 24.9236 11.1042C25.1601 10.8661 25.5434 10.8661 25.7798 11.1042C26.0162 11.3423 26.0162 11.7284 25.7798 11.9666C25.2638 12.4863 24.1806 13.2431 22.6212 13.8094L25.1893 19.1818C26.7955 18.4854 27.9802 17.697 28.5902 17.1704C28.8441 16.9512 29.2263 16.9808 29.4439 17.2365C29.6615 17.4922 29.6321 17.8772 29.3782 18.0964C27.8749 19.3943 23.5821 21.902 18.0867 21.902C12.5914 21.902 8.29863 19.3943 6.79528 18.0964C6.54142 17.8772 6.51202 17.4922 6.72962 17.2365C6.94722 16.9808 7.32941 16.9512 7.58328 17.1704C8.19266 17.6965 9.37575 18.4839 10.9796 19.1798L13.5476 13.8077C11.9907 13.2415 10.9092 12.4858 10.3937 11.9666C10.1572 11.7284 10.1572 11.3423 10.3937 11.1042C10.6301 10.8661 11.0134 10.8661 11.2499 11.1042ZM32.016 23.7028V21.5468L32.1814 21.7064C32.7873 22.2908 33.4534 22.9304 33.618 23.0755C33.6767 23.1272 33.7379 23.219 33.7695 23.3243C33.8018 23.432 33.7858 23.4906 33.781 23.5014C33.7598 23.5491 33.7153 23.6018 33.6444 23.6448C33.5698 23.6899 33.5015 23.7028 33.4728 23.7028H32.016ZM5.38961 24.3412H12.638V26.1706C12.638 26.5074 12.367 26.7804 12.0326 26.7804H5.99502C5.66066 26.7804 5.38961 26.5074 5.38961 26.1706V24.3412ZM23.5142 24.3412H30.7626V26.1706C30.7626 26.5074 30.4915 26.7804 30.1572 26.7804H24.1196C23.7852 26.7804 23.5142 26.5074 23.5142 26.1706V24.3412Z" fill="#212121"/>
</g>
</svg>
