<svg width="32" height="32" viewBox="0 0 32 32" fill="none" xmlns="http://www.w3.org/2000/svg">
<path d="M8.91655 11.8077C9.06383 10.5971 10.0225 9.83473 11.1553 9.6566C11.6819 9.57379 12.1868 9.6178 12.631 9.80655C11.9764 7.82842 11.3686 5.99082 11.2179 5.53147C10.8587 4.4369 11.4304 2.59807 13.1259 2.17178C14.1901 1.90267 15.8241 2.11421 16.3437 3.95379C16.5956 4.84601 16.9768 6.08312 17.3612 7.33034C17.8167 8.8087 18.2767 10.3013 18.5309 11.2505C18.7043 11.898 18.9495 12.1149 19.0776 11.7965L20.2182 5.21842C20.3661 4.39289 21.2803 2.77394 23.3901 3.09342C25.3408 3.38879 25.5776 5.34342 25.4682 6.40592C25.4682 6.40592 24.6245 10.4059 24.3589 11.6872L24.3333 11.8098C24.0829 13.0104 23.9426 13.6828 24.6714 17.0934C25.0908 19.0565 25.6218 21.966 24.1089 24.6559C22.9051 26.7961 20.0349 29.0739 16.6089 29.5622C12.4849 30.1499 8.40344 28.3548 6.71933 23.3745C5.81942 20.4486 5.35921 16.6561 5.35921 16.6561L5.36703 16.6551L5.08454 14.4755C4.84981 12.6644 5.88954 11.5864 7.32064 11.4025C7.93304 11.3238 8.47804 11.4821 8.91655 11.8077Z" fill="#FFC83D"/>
<path d="M12.1839 5.39317C12.2207 5.51039 12.2557 5.622 12.2864 5.72631L14.4968 12.2073C14.5657 12.4115 14.4952 12.6291 14.3366 12.7568L14.1316 11.9786C13.8537 10.9238 13.3064 10.2056 12.6373 9.82483L11.1269 5.32686C10.8721 4.65278 11.0981 3.02561 12.5468 2.39355C12.3525 2.51194 12.075 2.72144 11.953 2.94743C11.845 3.14761 11.7998 3.41914 11.8174 3.75815C11.8464 4.31832 12.0304 4.90447 12.1839 5.39317Z" fill="#D67D00"/>
<path d="M8.82948 18.7278C9.26075 18.6245 9.62584 18.4544 9.91618 18.2265C9.44348 17.7488 8.94943 16.9809 8.74726 16.1367C8.616 15.5885 8.45893 14.8391 8.31355 14.14L8.27533 13.9561C8.14362 13.3223 8.02508 12.7518 7.9448 12.4166C7.85097 12.0247 7.82368 11.6735 7.8345 11.3806C8.20036 11.4106 8.54019 11.5299 8.84164 11.7213C8.85328 11.8593 8.87671 12.0142 8.9173 12.1837C9.00136 12.5347 9.12311 13.1207 9.2532 13.7468L9.29261 13.9364C9.43875 14.6392 9.59267 15.373 9.71976 15.9038C9.86155 16.4959 10.2036 17.0575 10.5351 17.4257L10.5402 17.4136C11.1671 17.9143 11.9738 18.1034 12.779 17.9106C13.9534 17.6293 14.7628 16.6224 14.8038 15.3386C15.0996 17.0814 15.0296 19.2354 13.1859 19.6769C12.0675 19.9447 11.2764 19.62 10.8211 19.0684C10.5838 19.7547 10.2684 20.3755 9.05275 20.6666C7.16954 21.1176 6.26766 18.9313 5.8421 17.5269C6.37493 18.6195 7.57837 19.0274 8.82948 18.7278Z" fill="#D67D00"/>
<path d="M18.9273 20.224C19.3529 20.2852 19.8193 20.2894 20.31 20.228C22.8372 19.912 24.3318 21.8598 24.4937 22.5359C24.6039 22.9957 24.4448 23.4081 24.119 23.6416C23.904 23.7618 23.6854 23.8325 23.4766 23.8424C23.4012 23.8435 23.3229 23.8384 23.2422 23.8264C22.9467 23.7696 22.684 23.5699 22.4976 23.1906C22.0708 22.3223 20.9644 21.0588 19.3251 21.1221C18.5288 21.5253 17.8277 22.1794 17.1199 23.0696C16.3987 23.9767 15.696 25.0953 14.8845 26.3926C14.738 26.6267 14.4295 26.6977 14.1954 26.5513C13.9613 26.4048 13.8902 26.0963 14.0367 25.8622C14.8403 24.5776 15.5739 23.4072 16.3372 22.4472C16.6969 21.9948 17.0687 21.5818 17.4651 21.2199C16.3509 20.9172 15.8587 19.7549 15.7197 19.1743C15.5377 18.4145 15.6922 16.7717 17.4957 16.2586L17.5493 16.2435C15.7509 18.2516 16.8338 19.9074 18.8947 20.2192L18.919 20.2071L18.9273 20.224Z" fill="#D67D00"/>
<path d="M20.1978 5.12385L19.0484 11.8629C19.0484 11.8629 18.9677 12.3689 19.3167 12.4929C19.6658 12.6169 19.9491 12.4306 19.9944 12.1582L20.8676 6.94281C20.8988 6.78976 20.9283 6.60961 20.961 6.4107C21.0499 5.86934 21.1616 5.18904 21.3903 4.53787C21.6867 3.6941 22.0906 3.16786 22.6605 3.06593C21.0299 3.08285 20.3417 4.3941 20.1978 5.12385Z" fill="#D67D00"/>
</svg>
