<svg width="40" height="24" viewBox="0 0 40 24" fill="none" xmlns="http://www.w3.org/2000/svg">
<g opacity="0.4">
<path d="M3.50939 0.673107C3.41098 0.773485 3.37817 2.22338 3.37817 6.52847V12.25H4.47161H5.56505V7.45418V2.65835H19.9984H34.4318V7.45418V12.25H35.5253H36.6187L36.5968 6.41694L36.564 0.595036L20.1078 0.561577C7.39109 0.550423 3.6078 0.57273 3.50939 0.673107Z" fill="black"/>
<path d="M31.4797 4.24286C31.3266 4.32093 31.1188 4.57746 31.0095 4.81167C30.8345 5.15742 30.8236 5.2801 30.9329 5.62584C31.0642 6.03851 31.5781 6.45117 31.9498 6.45117C32.584 6.45117 33.1964 5.70392 33.0761 5.05704C32.9449 4.35439 32.092 3.91942 31.4797 4.24286Z" fill="black"/>
<path d="M1.15848 17.7603C0.17439 18.1283 -0.055232 18.686 0.0103743 20.6378C0.0322431 21.7419 0.0759806 21.9873 0.2728 22.255C0.994469 23.2588 3.13761 23.2588 3.85928 22.255C4.04516 21.9985 4.09983 21.7308 4.1217 20.9389L4.16544 19.9463H3.17041H2.17538V20.4482C2.17538 20.9501 2.17538 20.9501 2.55809 20.9501C2.95172 20.9501 2.99546 21.017 2.87518 21.4631C2.75491 21.9204 1.9895 22.0988 1.54119 21.7754C1.31157 21.6193 1.30063 21.53 1.30063 20.2809C1.30063 19.0764 1.3225 18.9425 1.50839 18.831C1.96763 18.5856 2.83145 18.7641 2.83145 19.1098C2.83145 19.2437 2.98453 19.2771 3.49844 19.2771H4.16544L4.09983 18.9648C4.00143 18.541 3.69526 18.1395 3.27976 17.8941C2.82051 17.6265 1.7052 17.5484 1.15848 17.7603Z" fill="black"/>
<path d="M5.73986 17.762C5.4993 17.8512 5.18221 18.0519 5.02912 18.2192C4.75576 18.4981 4.74483 18.5538 4.71203 20.1599C4.67922 21.5205 4.71203 21.8886 4.84324 22.1674C5.10566 22.6693 5.79453 22.9928 6.65835 23.0039C7.52216 23.0039 8.13449 22.7362 8.48439 22.1897C8.71401 21.844 8.73588 21.6767 8.73588 20.3383C8.73588 19 8.71401 18.8327 8.48439 18.4981C8.35318 18.2862 8.07982 18.0185 7.883 17.907C7.41282 17.617 6.30845 17.5501 5.73986 17.762ZM7.31441 18.9442C7.5003 19.1338 7.5331 19.3122 7.5331 20.316C7.5331 21.0633 7.48936 21.5317 7.39095 21.6544C7.19413 21.9444 6.50527 22.0224 6.1663 21.7994C5.90388 21.6209 5.89294 21.5763 5.89294 20.3383C5.89294 18.8773 5.96948 18.7211 6.66928 18.7211C6.95358 18.7211 7.17226 18.7992 7.31441 18.9442Z" fill="black"/>
<path d="M17.8555 17.727C17.6587 17.7827 17.3525 18.0058 17.1666 18.2177C16.8824 18.5523 16.8277 18.7084 16.8277 19.2103C16.8277 20.1695 17.276 20.5933 18.5225 20.8275C19.2879 20.9725 19.5066 21.151 19.4082 21.5413C19.277 22.0878 18.2273 22.1547 17.5494 21.664C17.2432 21.441 17.1338 21.4744 16.8496 21.8536C16.6199 22.1324 16.609 22.2105 16.7402 22.3667C17.2213 22.9689 18.8943 23.2031 19.7253 22.7905C20.611 22.3444 20.9281 21.2848 20.4032 20.4929C20.1627 20.1137 19.7034 19.9018 18.5225 19.6565C18.1398 19.5672 18.0851 19.5115 18.0523 19.1992C18.0305 18.9315 18.0742 18.82 18.2492 18.7196C18.5334 18.5635 19.1567 18.6638 19.5831 18.9204C19.8674 19.0877 19.9002 19.0877 20.0533 18.8869C20.447 18.3739 20.4579 18.2958 20.1627 18.095C19.4957 17.6489 18.5991 17.5039 17.8555 17.727Z" fill="black"/>
<path d="M37.0123 17.7731C36.7718 17.8623 36.4547 18.0519 36.3016 18.2192C36.0282 18.4981 36.0173 18.5538 35.9845 20.1599C35.9517 21.5205 35.9845 21.8886 36.1157 22.1674C36.3781 22.6693 37.067 22.9928 37.9308 23.0039C38.7946 23.0039 39.407 22.7362 39.7678 22.1786C40.0083 21.8105 40.0193 21.7101 39.9865 20.1933L39.9537 18.5873L39.5491 18.2192C38.9149 17.6281 37.9089 17.4497 37.0123 17.7731ZM38.5869 18.9442C38.7728 19.1338 38.8056 19.3122 38.8056 20.316C38.8056 21.0633 38.7618 21.5317 38.6634 21.6544C38.4666 21.9444 37.7777 22.0224 37.4388 21.7994C37.1763 21.6209 37.1654 21.5763 37.1654 20.3383C37.1654 18.8773 37.2419 18.7211 37.9417 18.7211C38.226 18.7211 38.4447 18.7992 38.5869 18.9442Z" fill="black"/>
<path d="M10.3434 17.7912C10.3106 17.847 9.99352 18.9623 9.62175 20.2783C9.24998 21.5944 8.92195 22.7432 8.90008 22.8212C8.85634 22.9328 8.99849 22.9551 9.46867 22.9328C10.0701 22.8993 10.1029 22.8882 10.2013 22.5313L10.2997 22.1632L11.0214 22.1967C11.7212 22.2301 11.7321 22.2413 11.8414 22.587C11.9398 22.9439 11.9617 22.9551 12.5194 22.9551C12.8474 22.9551 13.1098 22.9216 13.1098 22.8659C13.1098 22.8212 12.7818 21.6502 12.3881 20.2449L11.6555 17.7131H11.0214C10.6714 17.7131 10.3653 17.7466 10.3434 17.7912ZM11.1854 20.323C11.4259 21.1483 11.415 21.1706 10.9667 21.1706C10.6933 21.1706 10.584 21.126 10.6277 21.0256C10.6496 20.9587 10.7371 20.6241 10.8136 20.3006C10.9011 19.9884 10.9776 19.7207 10.9885 19.7207C11.0104 19.7207 11.0979 19.9884 11.1854 20.323Z" fill="black"/>
<path d="M13.5471 20.3386V22.9707L14.9467 22.9372L16.3354 22.9038L16.3682 22.3684L16.401 21.8442H15.5809H14.7499V19.7809V17.7176H14.1485H13.5471V20.3386Z" fill="black"/>
<path d="M20.6764 18.1816L20.7092 18.6611L21.398 18.6946L22.076 18.7281V20.836V22.9551H22.6774H23.2787V20.836V18.7169H23.9348H24.5909V18.215V17.7131H22.6117H20.6436L20.6764 18.1816Z" fill="black"/>
<path d="M24.9408 19.846L24.9736 21.965L25.4219 22.4C25.739 22.7011 26.0342 22.8573 26.4278 22.9465C27.2589 23.125 28.0024 22.9354 28.571 22.4L29.0193 21.965L29.0521 19.846L29.0849 17.7157H28.4835H27.8712V19.6452C27.8712 21.8758 27.8384 21.9539 26.9746 21.9539C26.1545 21.9539 26.1217 21.8647 26.1217 19.634V17.7157H25.5094H24.908L24.9408 19.846Z" fill="black"/>
<path d="M29.5331 20.3037L29.5659 22.9023H30.9327C32.1902 22.9023 32.3432 22.88 32.7915 22.6235C33.5242 22.1997 33.6663 21.8316 33.6663 20.2702C33.6663 19.1103 33.6444 18.9318 33.4148 18.5973C33.2836 18.3853 32.9556 18.1065 32.6822 17.9615C32.2558 17.7496 32.0261 17.7162 30.8562 17.7162H29.5112L29.5331 20.3037ZM32.2448 18.943C32.4307 19.1326 32.4635 19.3111 32.4635 20.3148C32.4635 21.7424 32.3542 21.8874 31.3919 21.8986H30.7687L30.7359 20.3037L30.7031 18.7199H31.3701C31.884 18.7199 32.0699 18.7646 32.2448 18.943Z" fill="black"/>
<path d="M34.2131 20.3497V22.9707L34.7927 22.9372L35.3612 22.9038L35.394 20.3051L35.4159 17.7176H34.8145H34.2131V20.3497Z" fill="black"/>
</g>
</svg>
