<svg width="50" height="22" viewBox="0 0 50 22" fill="none" xmlns="http://www.w3.org/2000/svg">
<g opacity="0.4">
<path d="M10.5055 15.5029C7.61708 16.7708 4.81282 18.2253 2.12423 19.8841C2.21186 19.9439 2.31352 19.9932 2.42919 20.032C2.61147 20.0918 2.8288 20.1271 3.08118 20.1306C4.39919 19.6974 5.69616 19.2149 6.98612 18.7078C8.90353 17.933 10.8139 17.1406 12.6507 16.1791C13.0679 15.9608 13.485 15.7319 13.8951 15.4994H10.4985L10.5055 15.5029Z" fill="black"/>
<path d="M8.30763 15.5029C7.36469 15.5029 6.89498 15.1155 6.89498 14.3548C6.89498 14.2703 6.93003 14.1365 6.97911 13.9674L9.97266 4.7016H6.28856L1.7772 18.5986C1.74215 18.75 1.72813 18.9015 1.72813 19.0388C1.72813 19.4227 1.86483 19.7044 2.12423 19.8876C4.80931 18.2288 7.61708 16.7708 10.5055 15.5065H8.30763V15.5029Z" fill="black"/>
<path d="M12.4474 13.9639L15.4234 4.7016H11.7218L8.74229 13.9639H12.4474Z" fill="black"/>
<path d="M2.4327 20.032C2.31702 19.9932 2.21537 19.9439 2.12773 19.8841C1.75967 20.1095 0.361049 20.8983 0 21.1343C0 21.1343 0.0175266 21.173 0.0350533 21.2153C0.0525799 21.2576 0.0701066 21.2963 0.0701066 21.2963C0.739624 21.1132 2.42919 20.3489 3.08469 20.1341C2.8288 20.1306 2.61497 20.0954 2.4327 20.0355V20.032Z" fill="black"/>
<path d="M12.6577 16.1826C10.8209 17.1406 8.91054 17.9365 6.99313 18.7113C5.70317 19.222 4.4062 19.7044 3.08819 20.1341C3.10923 20.1341 3.12325 20.1341 3.14428 20.1341H7.14736L24.2218 13.9639L13.9021 15.5029C13.4885 15.7354 13.0749 15.9608 12.6577 16.1826Z" fill="black"/>
<path d="M21.1967 13.9639L22.5918 11.2803C23.5383 10.9176 24.4882 10.5689 25.4382 10.2167L25.6906 9.43841L25.978 8.5474C25.0631 9.04045 24.1517 9.54407 23.2368 10.0442L26.013 4.69808H22.343L19.416 10.8683L20.5097 4.69808H16.808L15.7179 13.5167C14.498 13.9569 13.2642 14.3724 12.0548 14.8444C11.536 15.0592 11.0208 15.2775 10.509 15.5029H13.9056C14.8205 14.9923 15.7284 14.464 16.6468 13.9639H21.2002H21.1967Z" fill="black"/>
<path d="M30.3737 6.33219L30.8889 4.7016H27.2224L25.978 8.55092C26.0446 8.5157 26.1112 8.47696 26.1813 8.44174C27.5729 7.72682 28.9715 7.02246 30.3772 6.33219H30.3737Z" fill="black"/>
<path d="M42.737 15.5029C41.7765 15.5029 41.2893 15.1825 41.2893 14.538C41.2893 14.3865 41.3243 14.1823 41.3909 13.9639L43.8972 6.25471H45.713L46.2353 4.69808H38.1555C40.9212 3.31401 43.6273 1.8102 46.2563 0.162003L46.1827 0C42.1971 1.19037 38.3518 2.72235 34.5415 4.36703C34.2996 4.4762 34.0613 4.5889 33.8229 4.69808H32.7328L32.1579 6.48715L31.7863 7.64934C32.8624 7.18798 33.9246 6.70902 34.9867 6.21597L32.4979 13.9604H36.1995L38.6778 6.25119H40.2096L37.2091 15.4994H29.2379C28.295 15.4994 27.8253 15.1437 27.8253 14.4358C27.8253 14.2492 27.8428 14.0801 27.8919 13.9639H27.9024L28.9435 10.7027L29.3606 9.41376L29.3536 9.4208L29.3817 9.33276H33.1814L33.6862 7.79373L31.7828 7.65286C31.6706 7.70217 31.555 7.74795 31.4428 7.79373C30.8364 8.05083 30.2299 8.30792 29.6235 8.55444C28.2459 9.15667 26.8368 9.69198 25.4277 10.2167L24.2183 13.9604H24.2148L22.725 18.5986C22.676 18.6831 22.6584 18.8029 22.6584 18.9543C22.6584 19.4227 22.9389 19.8488 23.4542 20.039L36.4204 17.9435L37.181 17.8062L50 15.5065H42.7335L42.737 15.5029Z" fill="black"/>
</g>
</svg>
