<svg width="40" height="25" viewBox="0 0 40 25" fill="none" xmlns="http://www.w3.org/2000/svg">
<g opacity="0.4" clip-path="url(#clip0_1633_1743)">
<path d="M7.86076 19.4951C6.81791 19.4536 5.96469 19.1676 5.29755 18.6365C5.17023 18.535 4.86684 18.2308 4.76505 18.1025C4.49452 17.7616 4.31059 17.4298 4.18791 17.0617C3.81041 15.9286 4.0047 14.4417 4.74362 12.8099C5.3763 11.4129 6.35255 10.0273 8.05576 8.10823C8.30666 7.82584 9.0538 7 9.05862 7C9.0604 7 9.01969 7.07068 8.96844 7.15676C8.52558 7.90011 8.14666 8.7757 7.94023 9.53373C7.60862 10.75 7.64862 11.7938 8.05737 12.6032C8.33933 13.1608 8.82273 13.6438 9.3663 13.9108C10.3179 14.378 11.7111 14.4167 13.4125 14.0239C13.5297 13.9967 19.3343 12.4526 26.3118 10.5924C33.2893 8.73204 38.9991 7.21116 39 7.21241C39.002 7.21402 22.7893 14.1662 14.3731 17.7729C13.0402 18.3439 12.6838 18.4881 12.0572 18.7086C10.4554 19.2723 9.02058 19.5412 7.86076 19.4951Z" fill="black"/>
</g>
<defs>
<clipPath id="clip0_1633_1743">
<rect width="35" height="12.5" fill="white" transform="translate(4 7)"/>
</clipPath>
</defs>
</svg>
