<svg width="34" height="34" viewBox="0 0 34 34" fill="none" xmlns="http://www.w3.org/2000/svg">
<path d="M29.9213 22.0376C28.7685 20.0547 28.1562 17.2085 28.1562 13.8125C28.1562 10.8537 26.9808 8.01604 24.8886 5.92384C22.7964 3.83164 19.9588 2.65625 17 2.65625C14.0412 2.65625 11.2035 3.83164 9.11132 5.92384C7.01911 8.01604 5.84373 10.8537 5.84373 13.8125C5.84373 17.2098 5.23412 20.0547 4.0813 22.0376C3.84607 22.442 3.72137 22.9012 3.71974 23.3691C3.71811 23.837 3.8396 24.2971 4.07201 24.7031C4.30295 25.1094 4.63814 25.4467 5.04298 25.6802C5.44783 25.9137 5.90765 26.0349 6.37498 26.0312H11.1801C11.3119 27.4837 11.9821 28.8344 13.0589 29.818C14.1358 30.8016 15.5415 31.347 17 31.347C18.4584 31.347 19.8642 30.8016 20.941 29.818C22.0179 28.8344 22.688 27.4837 22.8198 26.0312H27.625C28.0916 26.0341 28.5506 25.9126 28.9547 25.6792C29.3588 25.4457 29.6934 25.1088 29.924 24.7031C30.1574 24.2976 30.28 23.8379 30.2795 23.37C30.2791 22.9021 30.1555 22.4426 29.9213 22.0376ZM17 28.1562C16.3876 28.1564 15.794 27.9449 15.3197 27.5577C14.8453 27.1705 14.5193 26.6312 14.3969 26.0312H19.6031C19.4806 26.6312 19.1546 27.1705 18.6803 27.5577C18.2059 27.9449 17.6123 28.1564 17 28.1562ZM7.25951 22.8438C8.4349 20.4531 9.03123 17.417 9.03123 13.8125C9.03123 11.6991 9.87079 9.67217 11.3652 8.17774C12.8596 6.68331 14.8865 5.84375 17 5.84375C19.1134 5.84375 21.1403 6.68331 22.6347 8.17774C24.1292 9.67217 24.9687 11.6991 24.9687 13.8125C24.9687 17.4157 25.5637 20.4531 26.7391 22.8438H7.25951Z" fill="white"/>
</svg>
