<svg width="155" height="65" viewBox="0 0 155 65" fill="none" xmlns="http://www.w3.org/2000/svg">
<path d="M32.6654 47.3177C23.7692 51.1874 15.1321 55.6268 6.85122 60.6896C7.12113 60.8723 7.43422 61.0228 7.79051 61.1411C8.35192 61.3238 9.0213 61.4313 9.79864 61.442C13.8581 60.1199 17.8528 58.6473 21.8258 57.0994C27.7315 54.7346 33.6155 52.316 39.2728 49.3815C40.5576 48.7151 41.8424 48.0164 43.1056 47.3069H32.6438L32.6654 47.3177Z" fill="url(#paint0_linear_1241_13119)"/>
<path d="M32.6654 47.3177C23.7692 51.1874 15.1321 55.6268 6.85122 60.6896C7.12113 60.8723 7.43422 61.0228 7.79051 61.1411C8.35192 61.3238 9.0213 61.4313 9.79864 61.442C13.8581 60.1199 17.8528 58.6473 21.8258 57.0994C27.7315 54.7346 33.6155 52.316 39.2728 49.3815C40.5576 48.7151 41.8424 48.0164 43.1056 47.3069H32.6438L32.6654 47.3177Z" fill="white"/>
<path d="M32.6654 47.3177C23.7692 51.1874 15.1321 55.6268 6.85122 60.6896C7.12113 60.8723 7.43422 61.0228 7.79051 61.1411C8.35192 61.3238 9.0213 61.4313 9.79864 61.442C13.8581 60.1199 17.8528 58.6473 21.8258 57.0994C27.7315 54.7346 33.6155 52.316 39.2728 49.3815C40.5576 48.7151 41.8424 48.0164 43.1056 47.3069H32.6438L32.6654 47.3177Z" fill="white"/>
<path d="M25.8961 47.3177C22.9919 47.3177 21.5451 46.1353 21.5451 43.8135C21.5451 43.5555 21.6531 43.147 21.8042 42.6311L31.0244 14.3501H19.6774L5.78237 56.7662C5.67441 57.2284 5.63122 57.6906 5.63122 58.1098C5.63122 59.2815 6.05228 60.1414 6.85122 60.7003C15.1213 55.6375 23.7692 51.1874 32.6654 47.3284H25.8961V47.3177Z" fill="url(#paint1_linear_1241_13119)"/>
<path d="M25.8961 47.3177C22.9919 47.3177 21.5451 46.1353 21.5451 43.8135C21.5451 43.5555 21.6531 43.147 21.8042 42.6311L31.0244 14.3501H19.6774L5.78237 56.7662C5.67441 57.2284 5.63122 57.6906 5.63122 58.1098C5.63122 59.2815 6.05228 60.1414 6.85122 60.7003C15.1213 55.6375 23.7692 51.1874 32.6654 47.3284H25.8961V47.3177Z" fill="white"/>
<path d="M25.8961 47.3177C22.9919 47.3177 21.5451 46.1353 21.5451 43.8135C21.5451 43.5555 21.6531 43.147 21.8042 42.6311L31.0244 14.3501H19.6774L5.78237 56.7662C5.67441 57.2284 5.63122 57.6906 5.63122 58.1098C5.63122 59.2815 6.05228 60.1414 6.85122 60.7003C15.1213 55.6375 23.7692 51.1874 32.6654 47.3284H25.8961V47.3177Z" fill="white"/>
<path d="M38.6466 42.6203L47.8128 14.3501H36.4118L27.2348 42.6203H38.6466Z" fill="url(#paint2_linear_1241_13119)"/>
<path d="M38.6466 42.6203L47.8128 14.3501H36.4118L27.2348 42.6203H38.6466Z" fill="white"/>
<path d="M38.6466 42.6203L47.8128 14.3501H36.4118L27.2348 42.6203H38.6466Z" fill="white"/>
<path d="M7.8013 61.1411C7.44502 61.0228 7.13193 60.8723 6.86201 60.6896C5.72839 61.3775 1.42062 63.7853 0.308594 64.5055C0.308594 64.5055 0.362576 64.6238 0.416558 64.7528C0.47054 64.8818 0.524522 65 0.524522 65C2.58664 64.441 7.79051 62.1085 9.80944 61.4528C9.0213 61.442 8.36272 61.3345 7.8013 61.1518V61.1411Z" fill="url(#paint3_linear_1241_13119)"/>
<path d="M7.8013 61.1411C7.44502 61.0228 7.13193 60.8723 6.86201 60.6896C5.72839 61.3775 1.42062 63.7853 0.308594 64.5055C0.308594 64.5055 0.362576 64.6238 0.416558 64.7528C0.47054 64.8818 0.524522 65 0.524522 65C2.58664 64.441 7.79051 62.1085 9.80944 61.4528C9.0213 61.442 8.36272 61.3345 7.8013 61.1518V61.1411Z" fill="white"/>
<path d="M7.8013 61.1411C7.44502 61.0228 7.13193 60.8723 6.86201 60.6896C5.72839 61.3775 1.42062 63.7853 0.308594 64.5055C0.308594 64.5055 0.362576 64.6238 0.416558 64.7528C0.47054 64.8818 0.524522 65 0.524522 65C2.58664 64.441 7.79051 62.1085 9.80944 61.4528C9.0213 61.442 8.36272 61.3345 7.8013 61.1518V61.1411Z" fill="white"/>
<path d="M39.2944 49.3923C33.6371 52.316 27.7531 54.7453 21.8474 57.1101C17.8744 58.6688 13.8797 60.1414 9.82023 61.4528C9.88501 61.4528 9.92819 61.4528 9.99297 61.4528H22.3225L74.9118 42.6203L43.1272 47.3177C41.8532 48.0271 40.5792 48.7151 39.2944 49.3923Z" fill="url(#paint4_linear_1241_13119)"/>
<path d="M39.2944 49.3923C33.6371 52.316 27.7531 54.7453 21.8474 57.1101C17.8744 58.6688 13.8797 60.1414 9.82023 61.4528C9.88501 61.4528 9.92819 61.4528 9.99297 61.4528H22.3225L74.9118 42.6203L43.1272 47.3177C41.8532 48.0271 40.5792 48.7151 39.2944 49.3923Z" fill="white"/>
<path d="M39.2944 49.3923C33.6371 52.316 27.7531 54.7453 21.8474 57.1101C17.8744 58.6688 13.8797 60.1414 9.82023 61.4528C9.88501 61.4528 9.92819 61.4528 9.99297 61.4528H22.3225L74.9118 42.6203L43.1272 47.3177C41.8532 48.0271 40.5792 48.7151 39.2944 49.3923Z" fill="white"/>
<path d="M65.5945 42.6203L69.8915 34.4295C72.8065 33.3223 75.7323 32.2581 78.6581 31.1832L79.4355 28.8077L80.3208 26.0881C77.5029 27.593 74.6959 29.1301 71.878 30.6565L80.4288 14.3393H69.1249L60.1099 33.1718L63.4784 14.3393H52.0774L48.7197 41.2552C44.9625 42.5988 41.1622 43.8672 37.4375 45.3076C35.8396 45.9633 34.2525 46.6297 32.6762 47.3177H43.138C45.9558 45.759 48.7521 44.1467 51.5807 42.6203H65.6053H65.5945Z" fill="url(#paint5_linear_1241_13119)"/>
<path d="M65.5945 42.6203L69.8915 34.4295C72.8065 33.3223 75.7323 32.2581 78.6581 31.1832L79.4355 28.8077L80.3208 26.0881C77.5029 27.593 74.6959 29.1301 71.878 30.6565L80.4288 14.3393H69.1249L60.1099 33.1718L63.4784 14.3393H52.0774L48.7197 41.2552C44.9625 42.5988 41.1622 43.8672 37.4375 45.3076C35.8396 45.9633 34.2525 46.6297 32.6762 47.3177H43.138C45.9558 45.759 48.7521 44.1467 51.5807 42.6203H65.6053H65.5945Z" fill="white"/>
<path d="M65.5945 42.6203L69.8915 34.4295C72.8065 33.3223 75.7323 32.2581 78.6581 31.1832L79.4355 28.8077L80.3208 26.0881C77.5029 27.593 74.6959 29.1301 71.878 30.6565L80.4288 14.3393H69.1249L60.1099 33.1718L63.4784 14.3393H52.0774L48.7197 41.2552C44.9625 42.5988 41.1622 43.8672 37.4375 45.3076C35.8396 45.9633 34.2525 46.6297 32.6762 47.3177H43.138C45.9558 45.759 48.7521 44.1467 51.5807 42.6203H65.6053H65.5945Z" fill="white"/>
<path d="M93.8595 19.3269L95.4466 14.3501H84.1535L80.3208 26.0989C80.5259 25.9914 80.731 25.8732 80.947 25.7657C85.2332 23.5836 89.5409 21.4338 93.8703 19.3269H93.8595Z" fill="url(#paint6_linear_1241_13119)"/>
<path d="M93.8595 19.3269L95.4466 14.3501H84.1535L80.3208 26.0989C80.5259 25.9914 80.731 25.8732 80.947 25.7657C85.2332 23.5836 89.5409 21.4338 93.8703 19.3269H93.8595Z" fill="white"/>
<path d="M93.8595 19.3269L95.4466 14.3501H84.1535L80.3208 26.0989C80.5259 25.9914 80.731 25.8732 80.947 25.7657C85.2332 23.5836 89.5409 21.4338 93.8703 19.3269H93.8595Z" fill="white"/>
<path d="M131.938 47.3177C128.98 47.3177 127.48 46.3395 127.48 44.3724C127.48 43.9102 127.587 43.2868 127.793 42.6203L135.512 19.0905H141.105L142.713 14.3393H117.828C126.346 10.1149 134.681 5.52505 142.778 0.49446L142.551 0C130.276 3.63321 118.432 8.30908 106.696 13.3289C105.951 13.6621 105.217 14.0061 104.483 14.3393H101.125L99.3549 19.7999L98.2104 23.3471C101.525 21.939 104.796 20.4771 108.068 18.9722L100.402 42.6096H111.803L119.436 19.0797H124.154L114.912 47.3069H90.3615C87.4572 47.3069 86.0105 46.2213 86.0105 44.0607C86.0105 43.491 86.0645 42.975 86.2156 42.6203H86.248L89.4546 32.6666L90.7393 28.7324L90.7177 28.7539L90.8041 28.4852H102.507L104.062 23.7878L98.1996 23.3579C97.8542 23.5084 97.4979 23.6481 97.1524 23.7878C95.2846 24.5725 93.4168 25.3572 91.549 26.1096C87.3061 27.9477 82.9659 29.5816 78.6258 31.1832L74.901 42.6096H74.8902L70.3017 56.7662C70.1506 57.0241 70.0966 57.3896 70.0966 57.8518C70.0966 59.2815 70.9603 60.5821 72.5474 61.1626L112.483 54.7668L114.826 54.3476L154.309 47.3284H131.928L131.938 47.3177Z" fill="url(#paint7_linear_1241_13119)"/>
<path d="M131.938 47.3177C128.98 47.3177 127.48 46.3395 127.48 44.3724C127.48 43.9102 127.587 43.2868 127.793 42.6203L135.512 19.0905H141.105L142.713 14.3393H117.828C126.346 10.1149 134.681 5.52505 142.778 0.49446L142.551 0C130.276 3.63321 118.432 8.30908 106.696 13.3289C105.951 13.6621 105.217 14.0061 104.483 14.3393H101.125L99.3549 19.7999L98.2104 23.3471C101.525 21.939 104.796 20.4771 108.068 18.9722L100.402 42.6096H111.803L119.436 19.0797H124.154L114.912 47.3069H90.3615C87.4572 47.3069 86.0105 46.2213 86.0105 44.0607C86.0105 43.491 86.0645 42.975 86.2156 42.6203H86.248L89.4546 32.6666L90.7393 28.7324L90.7177 28.7539L90.8041 28.4852H102.507L104.062 23.7878L98.1996 23.3579C97.8542 23.5084 97.4979 23.6481 97.1524 23.7878C95.2846 24.5725 93.4168 25.3572 91.549 26.1096C87.3061 27.9477 82.9659 29.5816 78.6258 31.1832L74.901 42.6096H74.8902L70.3017 56.7662C70.1506 57.0241 70.0966 57.3896 70.0966 57.8518C70.0966 59.2815 70.9603 60.5821 72.5474 61.1626L112.483 54.7668L114.826 54.3476L154.309 47.3284H131.928L131.938 47.3177Z" fill="white"/>
<path d="M131.938 47.3177C128.98 47.3177 127.48 46.3395 127.48 44.3724C127.48 43.9102 127.587 43.2868 127.793 42.6203L135.512 19.0905H141.105L142.713 14.3393H117.828C126.346 10.1149 134.681 5.52505 142.778 0.49446L142.551 0C130.276 3.63321 118.432 8.30908 106.696 13.3289C105.951 13.6621 105.217 14.0061 104.483 14.3393H101.125L99.3549 19.7999L98.2104 23.3471C101.525 21.939 104.796 20.4771 108.068 18.9722L100.402 42.6096H111.803L119.436 19.0797H124.154L114.912 47.3069H90.3615C87.4572 47.3069 86.0105 46.2213 86.0105 44.0607C86.0105 43.491 86.0645 42.975 86.2156 42.6203H86.248L89.4546 32.6666L90.7393 28.7324L90.7177 28.7539L90.8041 28.4852H102.507L104.062 23.7878L98.1996 23.3579C97.8542 23.5084 97.4979 23.6481 97.1524 23.7878C95.2846 24.5725 93.4168 25.3572 91.549 26.1096C87.3061 27.9477 82.9659 29.5816 78.6258 31.1832L74.901 42.6096H74.8902L70.3017 56.7662C70.1506 57.0241 70.0966 57.3896 70.0966 57.8518C70.0966 59.2815 70.9603 60.5821 72.5474 61.1626L112.483 54.7668L114.826 54.3476L154.309 47.3284H131.928L131.938 47.3177Z" fill="white"/>
<defs>
<linearGradient id="paint0_linear_1241_13119" x1="77.3086" y1="0" x2="77.3086" y2="65" gradientUnits="userSpaceOnUse">
<stop stop-color="white"/>
<stop offset="1" stop-color="#FFFBA3"/>
</linearGradient>
<linearGradient id="paint1_linear_1241_13119" x1="77.3086" y1="0" x2="77.3086" y2="65" gradientUnits="userSpaceOnUse">
<stop stop-color="white"/>
<stop offset="1" stop-color="#FFFBA3"/>
</linearGradient>
<linearGradient id="paint2_linear_1241_13119" x1="77.3086" y1="0" x2="77.3086" y2="65" gradientUnits="userSpaceOnUse">
<stop stop-color="white"/>
<stop offset="1" stop-color="#FFFBA3"/>
</linearGradient>
<linearGradient id="paint3_linear_1241_13119" x1="77.3086" y1="0" x2="77.3086" y2="65" gradientUnits="userSpaceOnUse">
<stop stop-color="white"/>
<stop offset="1" stop-color="#FFFBA3"/>
</linearGradient>
<linearGradient id="paint4_linear_1241_13119" x1="77.3086" y1="0" x2="77.3086" y2="65" gradientUnits="userSpaceOnUse">
<stop stop-color="white"/>
<stop offset="1" stop-color="#FFFBA3"/>
</linearGradient>
<linearGradient id="paint5_linear_1241_13119" x1="77.3086" y1="0" x2="77.3086" y2="65" gradientUnits="userSpaceOnUse">
<stop stop-color="white"/>
<stop offset="1" stop-color="#FFFBA3"/>
</linearGradient>
<linearGradient id="paint6_linear_1241_13119" x1="77.3086" y1="0" x2="77.3086" y2="65" gradientUnits="userSpaceOnUse">
<stop stop-color="white"/>
<stop offset="1" stop-color="#FFFBA3"/>
</linearGradient>
<linearGradient id="paint7_linear_1241_13119" x1="77.3086" y1="0" x2="77.3086" y2="65" gradientUnits="userSpaceOnUse">
<stop stop-color="white"/>
<stop offset="1" stop-color="#FFFBA3"/>
</linearGradient>
</defs>
</svg>
