<svg width="25" height="25" viewBox="0 0 25 25" fill="none" xmlns="http://www.w3.org/2000/svg">
<g clip-path="url(#clip0_1241_13741)">
<path d="M5.70312 9.53125C5.70312 9.22922 5.94796 8.98438 6.24999 8.98438H8.43749C8.73952 8.98438 8.98437 9.22922 8.98437 9.53125V11.5625C8.98437 11.8645 8.73952 12.1094 8.43749 12.1094H6.24999C5.94796 12.1094 5.70312 11.8645 5.70312 11.5625V9.53125ZM6.48437 9.76562V11.3281H8.20312V9.76562H6.48437Z" fill="#FB8500"/>
<path d="M6.24999 13.2812C5.94796 13.2812 5.70312 13.5261 5.70312 13.8281V15.8594C5.70312 16.1614 5.94796 16.4062 6.24999 16.4062H8.43749C8.73952 16.4062 8.98437 16.1614 8.98437 15.8594V13.8281C8.98437 13.5261 8.73952 13.2812 8.43749 13.2812H6.24999ZM6.48437 15.625V14.0625H8.20312V15.625H6.48437Z" fill="#FB8500"/>
<path d="M5.70312 18.0469C5.70312 17.7449 5.94796 17.5 6.24999 17.5H8.43749C8.73952 17.5 8.98437 17.7449 8.98437 18.0469V20.0781C8.98437 20.3802 8.73952 20.625 8.43749 20.625H6.24999C5.94796 20.625 5.70312 20.3802 5.70312 20.0781V18.0469ZM6.48437 18.2813V19.8438H8.20312V18.2813H6.48437Z" fill="#FB8500"/>
<path d="M11.4062 8.98438C11.1042 8.98438 10.8593 9.22922 10.8593 9.53125V11.5625C10.8593 11.8645 11.1042 12.1094 11.4062 12.1094H13.5937C13.8958 12.1094 14.1406 11.8645 14.1406 11.5625V9.53125C14.1406 9.22922 13.8958 8.98438 13.5937 8.98438H11.4062ZM11.6406 11.3281V9.76562H13.3593V11.3281H11.6406Z" fill="#FB8500"/>
<path d="M10.8593 13.8281C10.8593 13.5261 11.1042 13.2812 11.4062 13.2812H13.5937C13.8958 13.2812 14.1406 13.5261 14.1406 13.8281V15.8594C14.1406 16.1614 13.8958 16.4062 13.5937 16.4062H11.4062C11.1042 16.4062 10.8593 16.1614 10.8593 15.8594V13.8281ZM11.6406 14.0625V15.625H13.3593V14.0625H11.6406Z" fill="#FB8500"/>
<path d="M11.4062 17.5C11.1042 17.5 10.8593 17.7449 10.8593 18.0469V20.0781C10.8593 20.3802 11.1042 20.625 11.4062 20.625H13.5937C13.8958 20.625 14.1406 20.3802 14.1406 20.0781V18.0469C14.1406 17.7449 13.8958 17.5 13.5937 17.5H11.4062ZM11.6406 19.8438V18.2813H13.3593V19.8438H11.6406Z" fill="#FB8500"/>
<path d="M16.0156 9.53125C16.0156 9.22922 16.2605 8.98438 16.5625 8.98438H18.75C19.052 8.98438 19.2969 9.22922 19.2969 9.53125V11.5625C19.2969 11.8645 19.052 12.1094 18.75 12.1094H16.5625C16.2605 12.1094 16.0156 11.8645 16.0156 11.5625V9.53125ZM16.7969 9.76562V11.3281H18.5156V9.76562H16.7969Z" fill="#FB8500"/>
<path d="M16.5625 17.5C16.2605 17.5 16.0156 17.7449 16.0156 18.0469V20.0781C16.0156 20.3802 16.2605 20.625 16.5625 20.625H18.75C19.052 20.625 19.2969 20.3802 19.2969 20.0781V18.0469C19.2969 17.7449 19.052 17.5 18.75 17.5H16.5625ZM16.7969 19.8438V18.2813H18.5156V19.8438H16.7969Z" fill="#FB8500"/>
<path d="M16.5625 13.2812C16.2605 13.2812 16.0156 13.5261 16.0156 13.8281V15.8594C16.0156 16.1614 16.2605 16.4062 16.5625 16.4062H18.75C19.052 16.4062 19.2969 16.1614 19.2969 15.8594V13.8281C19.2969 13.5261 19.052 13.2812 18.75 13.2812H16.5625Z" fill="#FB8500"/>
<path d="M0.783722 5.46875C0.866208 2.86593 3.00215 0.78125 5.625 0.78125H19.375C21.9978 0.78125 24.1338 2.86593 24.2163 5.46875H24.2188V19.375C24.2188 22.0501 22.0501 24.2188 19.375 24.2188H5.625C2.94987 24.2188 0.78125 22.0501 0.78125 19.375V5.46875H0.783722ZM2.34375 7.03125V19.375C2.34375 21.1872 3.81282 22.6562 5.625 22.6562H19.375C21.1872 22.6562 22.6562 21.1872 22.6562 19.375V7.03125H2.34375Z" fill="#FB8500"/>
</g>
<defs>
<clipPath id="clip0_1241_13741">
<rect width="25" height="25" fill="white"/>
</clipPath>
</defs>
</svg>
