<svg width="22" height="22" viewBox="0 0 22 22" fill="none" xmlns="http://www.w3.org/2000/svg">
<g clip-path="url(#clip0_1241_13742)">
<path d="M0.6875 3.52344C0.6875 1.95737 1.95737 0.6875 3.52344 0.6875H18.4766C20.0426 0.6875 21.3125 1.95737 21.3125 3.52344V18.4766C21.3125 20.0426 20.0426 21.3125 18.4766 21.3125H3.52344C1.95737 21.3125 0.6875 20.0426 0.6875 18.4766V3.52344ZM8.37579 15.5163C8.57701 15.7139 8.84044 15.8125 9.10387 15.8125C9.3673 15.8125 9.63116 15.7139 9.83195 15.5163L17.5735 7.91363C17.9755 7.51883 17.9755 6.87839 17.5735 6.4836C17.1715 6.0888 16.5194 6.0888 16.1173 6.4836L9.10387 13.3713L5.88266 10.2078C5.48065 9.81303 4.82851 9.81303 4.42651 10.2078C4.0245 10.6026 4.0245 11.2431 4.42651 11.6379L8.37579 15.5163Z" fill="#FB8500"/>
</g>
<defs>
<clipPath id="clip0_1241_13742">
<rect width="22" height="22" fill="white"/>
</clipPath>
</defs>
</svg>
