<svg width="22" height="22" viewBox="0 0 22 22" fill="none" xmlns="http://www.w3.org/2000/svg">
<path fill-rule="evenodd" clip-rule="evenodd" d="M4.77113 16.1566C4.77113 16.7565 4.2848 17.2428 3.68488 17.2428C3.08496 17.2428 2.59863 16.7565 2.59863 16.1566C2.59863 15.5566 3.08496 15.0703 3.68488 15.0703C4.2848 15.0703 4.77113 15.5566 4.77113 16.1566ZM19.3874 16.1566C19.3874 16.7565 18.9011 17.2428 18.3011 17.2428C17.7012 17.2428 17.2149 16.7565 17.2149 16.1566C17.2149 15.5566 17.7012 15.0703 18.3011 15.0703C18.9011 15.0703 19.3874 15.5566 19.3874 16.1566Z" fill="#00A6ED"/>
<path fill-rule="evenodd" clip-rule="evenodd" d="M7.04677 9.12312L9.23302 12.0588L4.70239 12.5813L6.15989 9.21938C5.80927 9.08188 5.56177 8.73813 5.56177 8.33938C5.56177 7.81688 5.98802 7.39062 6.51052 7.39062C7.03302 7.39062 7.45927 7.81688 7.45927 8.33938C7.45927 8.66938 7.29427 8.95124 7.04677 9.12312ZM15.8194 9.21938L17.2769 12.5813L12.7463 12.0588L14.9325 9.12312C14.685 8.95124 14.52 8.6625 14.52 8.33938C14.52 7.81688 14.9463 7.39062 15.4688 7.39062C15.9913 7.39062 16.4175 7.81688 16.4175 8.33938C16.4175 8.73813 16.17 9.08188 15.8194 9.21938Z" fill="#E19747"/>
<path d="M20.6113 8.99937C20.6113 8.47687 20.185 8.05062 19.6625 8.05062C19.14 8.05062 18.7138 8.47687 18.7138 8.99937C18.7138 9.19187 18.7756 9.3775 18.8719 9.52188C18.7206 9.52188 18.5694 9.55626 18.425 9.65251L15.7231 11.3988C15.3656 11.6256 14.8981 11.5431 14.6438 11.1994L11.6394 7.12251C11.6187 7.08814 11.5912 7.06063 11.5637 7.03313C11.9281 6.83376 12.1756 6.44188 12.1756 5.995C12.1756 5.34188 11.6463 4.8125 10.9931 4.8125C10.34 4.8125 9.81063 5.34188 9.81063 5.995C9.81063 6.44188 10.0581 6.83376 10.4225 7.03313C10.395 7.06063 10.3675 7.08814 10.3469 7.12251L7.3425 11.1994C7.095 11.5431 6.62062 11.6256 6.26312 11.3988L3.56125 9.65251C3.41688 9.55626 3.26562 9.52188 3.11437 9.52188C3.2175 9.37063 3.2725 9.19187 3.2725 8.99937C3.2725 8.47687 2.84625 8.05062 2.32375 8.05062C1.80125 8.05062 1.375 8.47687 1.375 8.99937C1.375 9.52187 1.80125 9.94813 2.32375 9.94813C2.35812 9.94813 2.3925 9.94812 2.42 9.94124C2.33063 10.0994 2.29625 10.285 2.3375 10.4844L4.125 19.4013C4.25563 20.0406 4.81937 20.5013 5.4725 20.5013H6.89562H10.9931H15.0906H16.5138C17.1669 20.5013 17.7306 20.0406 17.8613 19.4013L19.6488 10.4844C19.69 10.285 19.6488 10.0925 19.5663 9.94124C19.6006 9.94124 19.635 9.94813 19.6625 9.94813C20.185 9.94813 20.6113 9.52187 20.6113 8.99937Z" fill="#FFB02E"/>
<path d="M10.9932 17.875C11.9424 17.875 12.7119 17.1055 12.7119 16.1562C12.7119 15.207 11.9424 14.4375 10.9932 14.4375C10.0439 14.4375 9.27441 15.207 9.27441 16.1562C9.27441 17.1055 10.0439 17.875 10.9932 17.875Z" fill="#00A6ED"/>
<path fill-rule="evenodd" clip-rule="evenodd" d="M7.5625 16.1562C7.5625 16.7258 7.10079 17.1875 6.53125 17.1875C5.96171 17.1875 5.5 16.7258 5.5 16.1562C5.5 15.5867 5.96171 15.125 6.53125 15.125C7.10079 15.125 7.5625 15.5867 7.5625 16.1562ZM16.5 16.1562C16.5 16.7258 16.0383 17.1875 15.4687 17.1875C14.8992 17.1875 14.4375 16.7258 14.4375 16.1562C14.4375 15.5867 14.8992 15.125 15.4687 15.125C16.0383 15.125 16.5 15.5867 16.5 16.1562Z" fill="#F8312F"/>
</svg>
