<svg width="22" height="22" viewBox="0 0 22 22" fill="none" xmlns="http://www.w3.org/2000/svg">
<g clip-path="url(#clip0_1302_2685)">
<path d="M17.7455 0.850186C16.94 0.0447297 15.6341 0.0447295 14.8287 0.850186L1.09401 14.5849C0.989786 14.6891 0.921817 14.824 0.900131 14.9698L0.0507013 20.6807C0.0186596 20.8961 0.0905838 21.1139 0.244585 21.2679C0.398587 21.4219 0.616449 21.4939 0.831869 21.4618L6.54266 20.6124C6.68845 20.5907 6.82342 20.5227 6.92765 20.4185L20.6623 6.68382C21.4678 5.87836 21.4678 4.57246 20.6623 3.767L17.7455 0.850186ZM13.6754 3.94801L17.5645 7.83709L16.1207 9.28089L12.2316 5.3918L13.6754 3.94801ZM15.6346 9.76702L6.42572 18.9759L2.53663 15.0868L11.7455 5.87793L15.6346 9.76702ZM5.80896 19.3314L2.81295 19.777L1.7355 18.6996L2.18113 15.7035L5.80896 19.3314Z" fill="white"/>
</g>
<defs>
<clipPath id="clip0_1302_2685">
<rect width="22" height="22" fill="white"/>
</clipPath>
</defs>
</svg>
