<svg width="139" height="105" viewBox="0 0 139 105" fill="none" xmlns="http://www.w3.org/2000/svg">
<path fill-rule="evenodd" clip-rule="evenodd" d="M37.2317 64.7734C37.2317 69.971 40.6164 72.6179 47.411 72.6179V72.642H56.6134C62.1203 70.5448 69.5104 66.4137 76.6593 62.4173L76.6595 62.4172C82.613 59.0891 88.3992 55.8545 92.7911 53.9661C96.6835 52.4098 100.576 50.7934 104.468 49.171H121.549L118.13 59.4233H91.0419L86.176 72.0585L139 64.4723L80.2891 87.5864L74.3169 103.339H50.5988L52.3969 98.5674L38.3392 104.102H9.88587H9.48722C18.8554 101.127 28.0741 97.7858 37.243 94.2498C45.4437 91.0216 53.6264 87.7404 61.6879 84.1937L86.1679 72.0629C86.1705 72.0614 86.1731 72.06 86.1757 72.0586L56.6204 72.8091C50.4035 76.2362 44.649 79.3542 39.0722 82.3758L39.0664 82.379L39.0648 82.3798C27.1133 88.8555 15.9772 94.8892 2.85426 102.576C0.985098 101.325 0 99.3999 0 96.7771C0 95.8386 0.101035 94.8039 0.353625 93.7692L33 0H59.1489L37.8379 62.1265C37.4842 63.2815 37.2317 64.1959 37.2317 64.7734ZM112.809 36.7635C116.37 35.0182 119.926 33.2205 123.481 31.4151L109.157 32.6338L103.98 41.2092C107.679 39.3802 110.774 37.826 112.809 36.7635ZM88.8294 48.2231C80.4925 52.2575 71.9005 56.3631 65.9517 59.1526L74.5851 35.3139L101.784 33.0441L94.6761 44.8161L94.701 44.814C92.7414 45.9466 90.7842 47.083 88.8294 48.2231Z" fill="#FB8500"/>
</svg>
