<svg width="24" height="25" viewBox="0 0 24 25" fill="none" xmlns="http://www.w3.org/2000/svg">
<g clip-path="url(#clip0_463_2777)">
<g clip-path="url(#clip1_463_2777)">
<g clip-path="url(#clip2_463_2777)">
<path d="M12 3.51953C12.1692 3.51936 12.3335 3.57646 12.466 3.68153L19.966 9.63153C20.0546 9.70179 20.1262 9.79118 20.1754 9.893C20.2246 9.99483 20.2501 10.1065 20.25 10.2195V19.5695C20.2538 20.2147 20.0014 20.8351 19.5482 21.2944C19.0951 21.7537 18.4782 22.0145 17.833 22.0195H6.16704C5.52184 22.0145 4.90498 21.7537 4.45185 21.2944C3.99871 20.8351 3.74631 20.2147 3.75004 19.5695V10.2195C3.74999 10.1065 3.77551 9.99483 3.82469 9.893C3.87387 9.79118 3.94544 9.70179 4.03404 9.63153L11.534 3.68153C11.6666 3.57646 11.8309 3.51936 12 3.51953ZM18.75 10.5815L12 5.22653L5.25004 10.5815V19.5695C5.24602 19.817 5.3403 20.056 5.51219 20.2341C5.68409 20.4121 5.91958 20.5148 6.16704 20.5195H17.833C18.0805 20.5148 18.316 20.4121 18.4879 20.2341C18.6598 20.056 18.7541 19.817 18.75 19.5695V10.5815Z" fill="#FF9534"/>
<path d="M14.5 22.0195C14.3011 22.0195 14.1103 21.9405 13.9697 21.7999C13.829 21.6592 13.75 21.4684 13.75 21.2695V15.0195H10.25V21.2695C10.25 21.4684 10.171 21.6592 10.0303 21.7999C9.88968 21.9405 9.69891 22.0195 9.5 22.0195C9.30109 22.0195 9.11032 21.9405 8.96967 21.7999C8.82902 21.6592 8.75 21.4684 8.75 21.2695V14.2695C8.75 14.0706 8.82902 13.8799 8.96967 13.7392C9.11032 13.5985 9.30109 13.5195 9.5 13.5195H14.5C14.6989 13.5195 14.8897 13.5985 15.0303 13.7392C15.171 13.8799 15.25 14.0706 15.25 14.2695V21.2695C15.25 21.4684 15.171 21.6592 15.0303 21.7999C14.8897 21.9405 14.6989 22.0195 14.5 22.0195Z" fill="#FF9534"/>
</g>
</g>
</g>
<defs>
<clipPath id="clip0_463_2777">
<rect width="24" height="24" fill="white" transform="translate(0 0.769531)"/>
</clipPath>
<clipPath id="clip1_463_2777">
<rect width="24" height="24" fill="white" transform="translate(0 0.769531)"/>
</clipPath>
<clipPath id="clip2_463_2777">
<rect width="24" height="24" fill="white" transform="translate(0 0.769531)"/>
</clipPath>
</defs>
</svg>
