<svg width="24" height="25" viewBox="0 0 24 25" fill="none" xmlns="http://www.w3.org/2000/svg">
<g clip-path="url(#clip0_463_2816)">
<g clip-path="url(#clip1_463_2816)">
<g clip-path="url(#clip2_463_2816)">
<path d="M12.001 10.0195C12.5449 10.0195 13.0766 10.1808 13.5288 10.483C13.981 10.7852 14.3335 11.2147 14.5416 11.7172C14.7498 12.2196 14.8042 12.7726 14.6981 13.306C14.592 13.8395 14.3301 14.3295 13.9455 14.7141C13.5609 15.0987 13.0709 15.3606 12.5375 15.4667C12.004 15.5728 11.4511 15.5183 10.9486 15.3102C10.4461 15.1021 10.0166 14.7496 9.71444 14.2973C9.41226 13.8451 9.25098 13.3134 9.25098 12.7695C9.25177 12.0404 9.54176 11.3414 10.0573 10.8259C10.5729 10.3103 11.2719 10.0203 12.001 10.0195ZM12.001 14.0195C12.2482 14.0195 12.4899 13.9462 12.6954 13.8089C12.901 13.6715 13.0612 13.4763 13.1558 13.2479C13.2504 13.0195 13.2752 12.7681 13.227 12.5257C13.1787 12.2832 13.0597 12.0605 12.8849 11.8856C12.71 11.7108 12.4873 11.5918 12.2448 11.5435C12.0024 11.4953 11.751 11.5201 11.5226 11.6147C11.2942 11.7093 11.099 11.8695 10.9616 12.0751C10.8243 12.2806 10.751 12.5223 10.751 12.7695C10.7512 13.101 10.883 13.4188 11.1174 13.6531C11.3517 13.8875 11.6695 14.0193 12.001 14.0195Z" fill="#D5D5D5"/>
<path d="M5.28202 20.2698C5.18314 20.2699 5.0852 20.2505 4.99389 20.2125C4.90257 20.1746 4.81968 20.1189 4.75002 20.0488C2.82827 18.1136 1.74976 15.497 1.74976 12.7698C1.74976 10.0425 2.82827 7.42592 4.75002 5.49077C4.89032 5.34968 5.08092 5.2701 5.2799 5.26953C5.47887 5.26897 5.66992 5.34747 5.81102 5.48777C5.95211 5.62807 6.0317 5.81868 6.03226 6.01765C6.03282 6.21663 5.95432 6.40768 5.81402 6.54877C4.17412 8.20398 3.25412 10.4398 3.25412 12.7698C3.25412 15.0998 4.17412 17.3356 5.81402 18.9908C5.91855 19.0958 5.98962 19.2295 6.01824 19.3749C6.04686 19.5203 6.03176 19.671 5.97484 19.8078C5.91793 19.9447 5.82174 20.0616 5.69843 20.1438C5.57513 20.226 5.43022 20.2698 5.28202 20.2698Z" fill="#D5D5D5"/>
<path d="M7.96997 17.5678C7.87126 17.5678 7.77352 17.5483 7.68238 17.5104C7.59125 17.4724 7.50852 17.4168 7.43897 17.3468C6.22865 16.129 5.54932 14.4817 5.54932 12.7648C5.54932 11.0478 6.22865 9.4006 7.43897 8.18278C7.58215 8.05693 7.76788 7.99031 7.95841 7.99649C8.14894 8.00266 8.32998 8.08115 8.46471 8.21601C8.59944 8.35087 8.67776 8.53198 8.68376 8.72252C8.68975 8.91305 8.62296 9.09872 8.49697 9.24178C7.56633 10.1785 7.044 11.4453 7.044 12.7658C7.044 14.0862 7.56633 15.3531 8.49697 16.2898C8.60145 16.3948 8.67249 16.5284 8.70115 16.6737C8.7298 16.819 8.71479 16.9696 8.65799 17.1064C8.6012 17.2432 8.50517 17.3601 8.38201 17.4424C8.25886 17.5247 8.11409 17.5687 7.96597 17.5688L7.96997 17.5678Z" fill="#D5D5D5"/>
<path d="M18.7391 20.2694C18.8379 20.2695 18.9359 20.2501 19.0272 20.2121C19.1185 20.1742 19.2014 20.1185 19.2711 20.0484C20.2261 19.0926 20.9827 17.9575 21.4976 16.7083C22.0124 15.4591 22.2753 14.1205 22.2711 12.7694C22.2753 11.4183 22.0124 10.0796 21.4976 8.83044C20.9827 7.58126 20.2261 6.44615 19.2711 5.49037C19.1291 5.35761 18.9412 5.28512 18.7469 5.28818C18.5526 5.29124 18.3671 5.3696 18.2294 5.50676C18.0917 5.64391 18.0126 5.82916 18.0089 6.02346C18.0051 6.21776 18.0768 6.40595 18.2091 6.54837C19.849 8.20358 20.769 10.4394 20.769 12.7694C20.769 15.0994 19.849 17.3352 18.2091 18.9904C18.1047 19.0953 18.0336 19.2288 18.0049 19.374C17.9763 19.5193 17.9912 19.6697 18.0479 19.8065C18.1045 19.9432 18.2004 20.0602 18.3234 20.1425C18.4464 20.2249 18.591 20.269 18.7391 20.2694Z" fill="#D5D5D5"/>
<path d="M16.0501 17.5682C16.1488 17.5682 16.2466 17.5487 16.3377 17.5108C16.4288 17.4729 16.5116 17.4173 16.5811 17.3472C17.7914 16.1294 18.4708 14.4822 18.4708 12.7652C18.4708 11.0483 17.7914 9.40104 16.5811 8.18323C16.4391 8.05061 16.2511 7.97831 16.0568 7.98155C15.8625 7.98479 15.677 8.06333 15.5395 8.20062C15.4019 8.3379 15.323 8.52321 15.3194 8.71751C15.3158 8.91181 15.3878 9.09993 15.5201 9.24223C16.4504 10.1789 16.9726 11.4455 16.9726 12.7657C16.9726 14.0859 16.4504 15.3525 15.5201 16.2892C15.4157 16.3942 15.3447 16.5277 15.316 16.6729C15.2873 16.8181 15.3022 16.9686 15.3589 17.1053C15.4156 17.2421 15.5114 17.359 15.6344 17.4414C15.7574 17.5238 15.9021 17.5679 16.0501 17.5682Z" fill="#D5D5D5"/>
</g>
</g>
</g>
<defs>
<clipPath id="clip0_463_2816">
<rect width="24" height="24" fill="white" transform="translate(0 0.769531)"/>
</clipPath>
<clipPath id="clip1_463_2816">
<rect width="24" height="24" fill="white" transform="translate(0 0.769531)"/>
</clipPath>
<clipPath id="clip2_463_2816">
<rect width="24" height="24" fill="white" transform="translate(0 0.769531)"/>
</clipPath>
</defs>
</svg>
