<svg width="24" height="25" viewBox="0 0 24 25" fill="none" xmlns="http://www.w3.org/2000/svg">
<g clip-path="url(#clip0_463_2806)">
<g clip-path="url(#clip1_463_2806)">
<g clip-path="url(#clip2_463_2806)">
<path d="M19 20.5193C18.8011 20.5193 18.6103 20.4402 18.4697 20.2996C18.329 20.1589 18.25 19.9682 18.25 19.7693V18.1023C18.2262 17.3956 17.9236 16.7271 17.4082 16.2431C16.8928 15.759 16.2067 15.4988 15.5 15.5193H8.5C7.79325 15.4988 7.10715 15.759 6.59179 16.2431C6.07643 16.7271 5.77376 17.3956 5.75 18.1023V19.7693C5.75 19.9682 5.67098 20.1589 5.53033 20.2996C5.38968 20.4402 5.19891 20.5193 5 20.5193C4.80109 20.5193 4.61032 20.4402 4.46967 20.2996C4.32902 20.1589 4.25 19.9682 4.25 19.7693V18.1023C4.2739 16.9978 4.73465 15.9479 5.53129 15.1825C6.32793 14.4172 7.39548 13.9989 8.5 14.0193H15.5C16.6045 13.9989 17.6721 14.4172 18.4687 15.1825C19.2654 15.9479 19.7261 16.9978 19.75 18.1023V19.7693C19.75 19.9682 19.671 20.1589 19.5303 20.2996C19.3897 20.4402 19.1989 20.5193 19 20.5193Z" fill="#D5D5D5"/>
<path d="M11.999 5.01953C12.7407 5.01953 13.4657 5.23946 14.0824 5.65152C14.6991 6.06358 15.1797 6.64925 15.4636 7.33447C15.7474 8.01969 15.8217 8.77369 15.677 9.50112C15.5323 10.2285 15.1751 10.8967 14.6507 11.4212C14.1262 11.9456 13.458 12.3028 12.7306 12.4475C12.0032 12.5922 11.2492 12.5179 10.564 12.2341C9.87874 11.9503 9.29307 11.4696 8.88101 10.8529C8.46896 10.2362 8.24902 9.51121 8.24902 8.76953C8.25008 7.77529 8.64551 6.82208 9.34854 6.11905C10.0516 5.41602 11.0048 5.02059 11.999 5.01953ZM11.999 11.0195C12.444 11.0195 12.879 10.8876 13.2491 10.6403C13.6191 10.3931 13.9075 10.0417 14.0778 9.63057C14.248 9.21944 14.2926 8.76704 14.2058 8.33058C14.119 7.89412 13.9047 7.49321 13.59 7.17854C13.2753 6.86387 12.8744 6.64958 12.438 6.56276C12.0015 6.47595 11.5491 6.52051 11.138 6.6908C10.7269 6.8611 10.3755 7.14949 10.1282 7.5195C9.88098 7.88951 9.74902 8.32452 9.74902 8.76953C9.74982 9.36602 9.98712 9.93786 10.4089 10.3596C10.8307 10.7814 11.4025 11.0187 11.999 11.0195Z" fill="#D5D5D5"/>
</g>
</g>
</g>
<defs>
<clipPath id="clip0_463_2806">
<rect width="24" height="24" fill="white" transform="translate(0 0.769531)"/>
</clipPath>
<clipPath id="clip1_463_2806">
<rect width="24" height="24" fill="white" transform="translate(0 0.769531)"/>
</clipPath>
<clipPath id="clip2_463_2806">
<rect width="24" height="24" fill="white" transform="translate(0 0.769531)"/>
</clipPath>
</defs>
</svg>
