<svg width="24" height="24" viewBox="0 0 24 24" fill="none" xmlns="http://www.w3.org/2000/svg">
<g clip-path="url(#clip0_842_1167)">
<g clip-path="url(#clip1_842_1167)">
<g clip-path="url(#clip2_842_1167)">
<path d="M17.998 20.5022H5.99805C5.46761 20.5022 4.95906 20.2915 4.58398 19.9164C4.20891 19.5414 3.99805 19.0326 3.99805 18.5022V12.4492C4.41291 12.8743 4.9291 13.1867 5.49805 13.3572V18.5022C5.49805 18.6348 5.55076 18.762 5.64453 18.8558C5.7383 18.9495 5.86544 19.0022 5.99805 19.0022H17.998C18.1307 19.0022 18.2578 18.9495 18.3516 18.8558C18.4453 18.762 18.498 18.6348 18.498 18.5022V13.3572C19.0659 13.1883 19.5818 12.8788 19.998 12.4572V18.5022C19.998 19.0326 19.7872 19.5414 19.4121 19.9164C19.037 20.2915 18.5285 20.5022 17.998 20.5022Z" fill="#FB8500"/>
<path d="M4.5 5V10C4.5 10.5304 4.71071 11.0391 5.08579 11.4142C5.46086 11.7893 5.96957 12 6.5 12C7.03043 12 7.53914 11.7893 7.91421 11.4142C8.28929 11.0391 8.5 10.5304 8.5 10V5H4.5ZM3 3.5H10V10C10 10.9283 9.63125 11.8185 8.97487 12.4749C8.3185 13.1313 7.42826 13.5 6.5 13.5C5.57174 13.5 4.6815 13.1313 4.02513 12.4749C3.36875 11.8185 3 10.9283 3 10V3.5Z" fill="#FB8500"/>
<path d="M10 5V10C10 10.5304 10.2107 11.0391 10.5858 11.4142C10.9609 11.7893 11.4696 12 12 12C12.5304 12 13.0391 11.7893 13.4142 11.4142C13.7893 11.0391 14 10.5304 14 10V5H10ZM8.5 3.5H15.5V10C15.5 10.9283 15.1313 11.8185 14.4749 12.4749C13.8185 13.1313 12.9283 13.5 12 13.5C11.0717 13.5 10.1815 13.1313 9.52513 12.4749C8.86875 11.8185 8.5 10.9283 8.5 10V3.5Z" fill="#FB8500"/>
<path d="M15.5 5V10C15.5 10.5304 15.7107 11.0391 16.0858 11.4142C16.4609 11.7893 16.9696 12 17.5 12C18.0304 12 18.5391 11.7893 18.9142 11.4142C19.2893 11.0391 19.5 10.5304 19.5 10V5H15.5ZM14 3.5H21V10C21 10.9283 20.6313 11.8185 19.9749 12.4749C19.3185 13.1313 18.4283 13.5 17.5 13.5C16.5717 13.5 15.6815 13.1313 15.0251 12.4749C14.3687 11.8185 14 10.9283 14 10V3.5Z" fill="#FB8500"/>
<path d="M16.5 16.75H15C14.8011 16.75 14.6103 16.671 14.4697 16.5303C14.329 16.3897 14.25 16.1989 14.25 16C14.25 15.8011 14.329 15.6103 14.4697 15.4697C14.6103 15.329 14.8011 15.25 15 15.25H16.5C16.6989 15.25 16.8897 15.329 17.0303 15.4697C17.171 15.6103 17.25 15.8011 17.25 16C17.25 16.1989 17.171 16.3897 17.0303 16.5303C16.8897 16.671 16.6989 16.75 16.5 16.75Z" fill="#FB8500"/>
</g>
</g>
</g>
<defs>
<clipPath id="clip0_842_1167">
<rect width="24" height="24" fill="white"/>
</clipPath>
<clipPath id="clip1_842_1167">
<rect width="24" height="24" fill="white"/>
</clipPath>
<clipPath id="clip2_842_1167">
<rect width="24" height="24" fill="white"/>
</clipPath>
</defs>
</svg>
