<svg width="24" height="25" viewBox="0 0 24 25" fill="none" xmlns="http://www.w3.org/2000/svg">
<g clip-path="url(#clip0_463_2794)">
<g clip-path="url(#clip1_463_2794)">
<g clip-path="url(#clip2_463_2794)">
<path d="M17.998 21.2717H5.99805C5.46761 21.2717 4.95906 21.061 4.58398 20.686C4.20891 20.3109 3.99805 19.8022 3.99805 19.2717V13.2188C4.41291 13.6438 4.9291 13.9562 5.49805 14.1267V19.2717C5.49805 19.4044 5.55076 19.5315 5.64453 19.6253C5.7383 19.7191 5.86544 19.7717 5.99805 19.7717H17.998C18.1307 19.7717 18.2578 19.7191 18.3516 19.6253C18.4453 19.5315 18.498 19.4044 18.498 19.2717V14.1267C19.0659 13.9579 19.5818 13.6483 19.998 13.2267V19.2717C19.998 19.8022 19.7872 20.3109 19.4121 20.686C19.037 21.061 18.5285 21.2717 17.998 21.2717Z" fill="#D5D5D5"/>
<path d="M4.5 5.76953V10.7695C4.5 11.3 4.71071 11.8087 5.08579 12.1837C5.46086 12.5588 5.96957 12.7695 6.5 12.7695C7.03043 12.7695 7.53914 12.5588 7.91421 12.1837C8.28929 11.8087 8.5 11.3 8.5 10.7695V5.76953H4.5ZM3 4.26953H10V10.7695C10 11.6978 9.63125 12.588 8.97487 13.2444C8.3185 13.9008 7.42826 14.2695 6.5 14.2695C5.57174 14.2695 4.6815 13.9008 4.02513 13.2444C3.36875 12.588 3 11.6978 3 10.7695V4.26953Z" fill="#D5D5D5"/>
<path d="M10 5.76953V10.7695C10 11.3 10.2107 11.8087 10.5858 12.1837C10.9609 12.5588 11.4696 12.7695 12 12.7695C12.5304 12.7695 13.0391 12.5588 13.4142 12.1837C13.7893 11.8087 14 11.3 14 10.7695V5.76953H10ZM8.5 4.26953H15.5V10.7695C15.5 11.6978 15.1313 12.588 14.4749 13.2444C13.8185 13.9008 12.9283 14.2695 12 14.2695C11.0717 14.2695 10.1815 13.9008 9.52513 13.2444C8.86875 12.588 8.5 11.6978 8.5 10.7695V4.26953Z" fill="#D5D5D5"/>
<path d="M15.5 5.76953V10.7695C15.5 11.3 15.7107 11.8087 16.0858 12.1837C16.4609 12.5588 16.9696 12.7695 17.5 12.7695C18.0304 12.7695 18.5391 12.5588 18.9142 12.1837C19.2893 11.8087 19.5 11.3 19.5 10.7695V5.76953H15.5ZM14 4.26953H21V10.7695C21 11.6978 20.6313 12.588 19.9749 13.2444C19.3185 13.9008 18.4283 14.2695 17.5 14.2695C16.5717 14.2695 15.6815 13.9008 15.0251 13.2444C14.3687 12.588 14 11.6978 14 10.7695V4.26953Z" fill="#D5D5D5"/>
<path d="M16.5 17.5195H15C14.8011 17.5195 14.6103 17.4405 14.4697 17.2999C14.329 17.1592 14.25 16.9684 14.25 16.7695C14.25 16.5706 14.329 16.3799 14.4697 16.2392C14.6103 16.0985 14.8011 16.0195 15 16.0195H16.5C16.6989 16.0195 16.8897 16.0985 17.0303 16.2392C17.171 16.3799 17.25 16.5706 17.25 16.7695C17.25 16.9684 17.171 17.1592 17.0303 17.2999C16.8897 17.4405 16.6989 17.5195 16.5 17.5195Z" fill="#D5D5D5"/>
</g>
</g>
</g>
<defs>
<clipPath id="clip0_463_2794">
<rect width="24" height="24" fill="white" transform="translate(0 0.769531)"/>
</clipPath>
<clipPath id="clip1_463_2794">
<rect width="24" height="24" fill="white" transform="translate(0 0.769531)"/>
</clipPath>
<clipPath id="clip2_463_2794">
<rect width="24" height="24" fill="white" transform="translate(0 0.769531)"/>
</clipPath>
</defs>
</svg>
