<?xml version="1.0" encoding="UTF-8"?>
<svg xmlns="http://www.w3.org/2000/svg" xmlns:xlink="http://www.w3.org/1999/xlink" width="24px" height="25px" viewBox="0 0 24 24" version="1.1">
<g id="surface1">
<path style=" stroke:none;fill-rule:nonzero;fill:rgb(98.431373%,52.156863%,0%);fill-opacity:1;" d="M 3.585938 16.851562 C 3.585938 17.070312 3.40625 17.25 3.1875 17.25 C 2.96875 17.25 2.789062 17.070312 2.789062 16.851562 C 2.789062 16.632812 2.96875 16.453125 3.1875 16.453125 C 3.40625 16.453125 3.585938 16.632812 3.585938 16.851562 Z M 3.585938 16.851562 "/>
<path style=" stroke:none;fill-rule:nonzero;fill:rgb(98.431373%,52.156863%,0%);fill-opacity:1;" d="M 14.457031 13.996094 C 13.847656 14.148438 13.148438 14.25 12.375 14.25 C 11.597656 14.25 10.902344 14.148438 10.289062 13.996094 L 8.671875 17.351562 C 9.71875 17.722656 10.980469 18 12.375 18 C 13.769531 18 15.027344 17.722656 16.074219 17.351562 Z M 14.457031 13.996094 "/>
<path style=" stroke:none;fill-rule:nonzero;fill:rgb(98.431373%,52.156863%,0%);fill-opacity:1;" d="M 4.519531 14.644531 C 4.40625 14.632812 4.289062 14.625 4.171875 14.625 C 2.515625 14.625 1.171875 15.96875 1.171875 17.625 C 1.171875 19.140625 2.296875 20.394531 3.761719 20.597656 L 3.761719 21.375 C 3.761719 21.996094 4.265625 22.5 4.886719 22.5 L 8.625 22.5 C 9.246094 22.5 9.75 21.996094 9.75 21.375 L 9.75 20.234375 L 14.988281 20.234375 L 14.988281 21.375 C 14.988281 21.996094 15.492188 22.5 16.113281 22.5 L 19.851562 22.5 C 20.472656 22.5 20.976562 21.996094 20.976562 21.375 L 20.976562 20.609375 L 21.90625 20.609375 C 22.21875 20.609375 22.613281 20.414062 22.78125 20.039062 C 22.878906 19.824219 22.863281 19.59375 22.808594 19.40625 C 22.75 19.21875 22.640625 19.039062 22.488281 18.90625 C 22.402344 18.832031 22.007812 18.457031 21.625 18.089844 C 21.433594 17.90625 21.25 17.730469 21.113281 17.597656 L 20.933594 17.425781 C 20.566406 12.96875 16.871094 9.585938 12.304688 9.585938 C 8.757812 9.585938 5.820312 11.640625 4.519531 14.644531 Z M 4.238281 15.375 C 3.949219 16.253906 3.796875 17.199219 3.796875 18.1875 C 3.796875 18.535156 3.785156 18.875 3.777344 19.214844 C 3.773438 19.308594 3.773438 19.40625 3.769531 19.5 L 3.761719 19.5 L 3.761719 19.835938 C 2.714844 19.644531 1.921875 18.726562 1.921875 17.625 C 1.921875 16.382812 2.929688 15.375 4.171875 15.375 C 4.195312 15.375 4.21875 15.375 4.238281 15.375 Z M 8.140625 12.109375 C 8.570312 12.539062 10.074219 13.5 12.375 13.5 C 14.675781 13.5 16.179688 12.539062 16.609375 12.109375 C 16.757812 11.964844 16.992188 11.964844 17.140625 12.109375 C 17.285156 12.257812 17.285156 12.492188 17.140625 12.640625 C 16.820312 12.960938 16.148438 13.425781 15.183594 13.773438 L 16.773438 17.078125 C 17.769531 16.648438 18.503906 16.164062 18.882812 15.839844 C 19.039062 15.707031 19.273438 15.722656 19.410156 15.882812 C 19.542969 16.039062 19.527344 16.273438 19.367188 16.410156 C 18.4375 17.207031 15.777344 18.75 12.375 18.75 C 8.972656 18.75 6.3125 17.207031 5.382812 16.410156 C 5.222656 16.273438 5.207031 16.039062 5.339844 15.882812 C 5.476562 15.722656 5.710938 15.707031 5.867188 15.839844 C 6.246094 16.164062 6.980469 16.648438 7.972656 17.074219 L 9.5625 13.773438 C 8.597656 13.425781 7.929688 12.960938 7.609375 12.640625 C 7.464844 12.492188 7.464844 12.257812 7.609375 12.109375 C 7.757812 11.964844 7.992188 11.964844 8.140625 12.109375 Z M 21.003906 19.859375 L 21.003906 18.53125 L 21.105469 18.628906 C 21.480469 18.988281 21.894531 19.382812 21.996094 19.472656 C 22.03125 19.503906 22.070312 19.558594 22.089844 19.625 C 22.109375 19.691406 22.097656 19.726562 22.097656 19.734375 C 22.082031 19.761719 22.054688 19.796875 22.011719 19.820312 C 21.964844 19.847656 21.921875 19.859375 21.90625 19.859375 Z M 4.511719 20.25 L 9 20.25 L 9 21.375 C 9 21.582031 8.832031 21.75 8.625 21.75 L 4.886719 21.75 C 4.679688 21.75 4.511719 21.582031 4.511719 21.375 Z M 15.738281 20.25 L 20.226562 20.25 L 20.226562 21.375 C 20.226562 21.582031 20.058594 21.75 19.851562 21.75 L 16.113281 21.75 C 15.90625 21.75 15.738281 21.582031 15.738281 21.375 Z M 15.738281 20.25 "/>
</g>
</svg>
