<svg width="31" height="31" viewBox="0 0 31 31" fill="none" xmlns="http://www.w3.org/2000/svg">
<circle cx="15.5" cy="15.5" r="15.5" fill="url(#paint0_linear_816_1096)"/>
<circle cx="15.5" cy="15.5" r="15.5" fill="url(#paint1_linear_816_1096)"/>
<circle cx="15.5001" cy="15.4987" r="13.403" fill="url(#paint2_linear_816_1096)"/>
<circle cx="15.5001" cy="15.4996" r="11.7007" fill="url(#paint3_linear_816_1096)"/>
<circle cx="15.5001" cy="15.4996" r="11.7007" fill="url(#paint4_radial_816_1096)"/>
<circle cx="15.5001" cy="15.4996" r="11.7007" fill="url(#paint5_radial_816_1096)"/>
<path d="M17.309 9.92695C17.309 9.48513 16.9508 9.12695 16.509 9.12695H12.8641C12.6432 9.12695 12.4641 9.30604 12.4641 9.52695V11.7761C12.4641 11.997 12.6432 12.1761 12.8641 12.1761H13.9014C14.0394 12.1761 14.1514 12.288 14.1514 12.4261V21.7394C14.1514 22.0156 14.3752 22.2394 14.6514 22.2394H16.809C17.0851 22.2394 17.309 22.0156 17.309 21.7394V9.92695Z" fill="#6F3955"/>
<path d="M17.309 9.92695C17.309 9.48513 16.9508 9.12695 16.509 9.12695H12.8641C12.6432 9.12695 12.4641 9.30604 12.4641 9.52695V11.7761C12.4641 11.997 12.6432 12.1761 12.8641 12.1761H13.9014C14.0394 12.1761 14.1514 12.288 14.1514 12.4261V21.7394C14.1514 22.0156 14.3752 22.2394 14.6514 22.2394H16.809C17.0851 22.2394 17.309 22.0156 17.309 21.7394V9.92695Z" fill="url(#paint6_linear_816_1096)"/>
<defs>
<linearGradient id="paint0_linear_816_1096" x1="23.7851" y1="10.0057" x2="12.9796" y2="20.5936" gradientUnits="userSpaceOnUse">
<stop stop-color="#F4C654"/>
<stop offset="1" stop-color="#DC9729"/>
</linearGradient>
<linearGradient id="paint1_linear_816_1096" x1="10.0837" y1="31.7532" x2="13.5793" y2="11.4826" gradientUnits="userSpaceOnUse">
<stop stop-color="#FA8547"/>
<stop offset="1" stop-color="#FA8547" stop-opacity="0"/>
</linearGradient>
<linearGradient id="paint2_linear_816_1096" x1="27.7122" y1="13.1567" x2="15.5001" y2="13.1567" gradientUnits="userSpaceOnUse">
<stop stop-color="#F9A842"/>
<stop offset="1" stop-color="#FAA742"/>
<stop offset="1" stop-color="#FAA742"/>
</linearGradient>
<linearGradient id="paint3_linear_816_1096" x1="10.0911" y1="14.0157" x2="27.5453" y2="14.0157" gradientUnits="userSpaceOnUse">
<stop stop-color="#FAA945"/>
<stop offset="1" stop-color="#EC9936"/>
</linearGradient>
<radialGradient id="paint4_radial_816_1096" cx="0" cy="0" r="1" gradientUnits="userSpaceOnUse" gradientTransform="translate(20.0367 15.4996) rotate(180) scale(16.2374 13.836)">
<stop offset="0.893104" stop-color="#F7B44D" stop-opacity="0"/>
<stop offset="1" stop-color="#F7B44D"/>
</radialGradient>
<radialGradient id="paint5_radial_816_1096" cx="0" cy="0" r="1" gradientUnits="userSpaceOnUse" gradientTransform="translate(12.4622 15.4996) scale(15.6239 13.7008)">
<stop offset="0.878757" stop-color="#D2801F" stop-opacity="0"/>
<stop offset="0.98268" stop-color="#D2801F"/>
</radialGradient>
<linearGradient id="paint6_linear_816_1096" x1="16.0797" y1="22.2394" x2="16.0797" y2="20.9798" gradientUnits="userSpaceOnUse">
<stop stop-color="#693B2E"/>
<stop offset="1" stop-color="#693B2E" stop-opacity="0"/>
</linearGradient>
</defs>
</svg>
