<svg width="31" height="31" viewBox="0 0 31 31" fill="none" xmlns="http://www.w3.org/2000/svg">
<circle cx="15.5" cy="15.5" r="15.5" fill="url(#paint0_linear_816_1101)"/>
<circle cx="15.5" cy="15.5" r="15.5" fill="url(#paint1_linear_816_1101)"/>
<circle cx="15.5" cy="15.4987" r="13.403" fill="url(#paint2_linear_816_1101)"/>
<circle cx="15.5" cy="15.4996" r="11.7007" fill="url(#paint3_linear_816_1101)"/>
<circle cx="15.5" cy="15.4996" r="11.7007" fill="url(#paint4_radial_816_1101)"/>
<circle cx="15.5" cy="15.4996" r="11.7007" fill="url(#paint5_radial_816_1101)"/>
<circle cx="15.5" cy="15.4996" r="11.7007" fill="url(#paint6_radial_816_1101)"/>
<path d="M18.5696 22.351H12.4453C11.8437 22.351 11.3038 22.0116 11.0415 21.4563C10.7793 20.9164 10.8564 20.2684 11.2421 19.8056L16.3328 13.5579C16.7339 13.0643 16.5487 12.5398 16.487 12.3855C16.4099 12.2004 16.1631 11.7839 15.5923 11.7685C15.5769 11.7685 15.546 11.7685 15.5152 11.7685C15.0215 11.7685 14.5742 11.9999 14.2811 12.401C13.7874 13.0951 12.8155 13.2648 12.1059 12.7712C11.3963 12.2776 11.2421 11.3057 11.7357 10.5961C12.5996 9.37738 14.0034 8.65234 15.4997 8.65234C15.5769 8.65234 15.6386 8.65234 15.7003 8.65234C17.2738 8.72948 18.6467 9.67048 19.2946 11.1051C19.958 12.5861 19.742 14.2676 18.7239 15.5171L15.7157 19.2194H18.5542C19.4181 19.2194 20.1123 19.9136 20.1123 20.7775C20.1123 21.6414 19.4335 22.351 18.5696 22.351Z" fill="#6A6372"/>
<defs>
<linearGradient id="paint0_linear_816_1101" x1="27.4554" y1="7.48705" x2="13.0356" y2="20.6716" gradientUnits="userSpaceOnUse">
<stop stop-color="#EFEAF6"/>
<stop offset="1" stop-color="#B5A8C3"/>
</linearGradient>
<linearGradient id="paint1_linear_816_1101" x1="10.0837" y1="31.7532" x2="13.5793" y2="11.4826" gradientUnits="userSpaceOnUse">
<stop stop-color="#D0A9F4"/>
<stop offset="1" stop-color="#D0A9F4" stop-opacity="0"/>
</linearGradient>
<linearGradient id="paint2_linear_816_1101" x1="27.712" y1="13.1567" x2="15.5" y2="13.1567" gradientUnits="userSpaceOnUse">
<stop stop-color="#D3C6E2"/>
<stop offset="1" stop-color="#D6C6E8"/>
</linearGradient>
<linearGradient id="paint3_linear_816_1101" x1="8.15599" y1="18.5399" x2="27.6287" y2="12.6478" gradientUnits="userSpaceOnUse">
<stop stop-color="#E0D3EF"/>
<stop offset="1" stop-color="#C1B0D4"/>
</linearGradient>
<radialGradient id="paint4_radial_816_1101" cx="0" cy="0" r="1" gradientUnits="userSpaceOnUse" gradientTransform="translate(19.9402 13.7256) rotate(156.644) scale(17.5815 14.9813)">
<stop offset="0.837399" stop-color="#F6ECFE" stop-opacity="0"/>
<stop offset="1" stop-color="#F6ECFE"/>
</radialGradient>
<radialGradient id="paint5_radial_816_1101" cx="0" cy="0" r="1" gradientUnits="userSpaceOnUse" gradientTransform="translate(14.0056 16.8872) rotate(-41.2938) scale(13.8282 13.2778)">
<stop offset="0.909611" stop-color="#B396CF" stop-opacity="0"/>
<stop offset="0.991989" stop-color="#B796D5"/>
</radialGradient>
<radialGradient id="paint6_radial_816_1101" cx="0" cy="0" r="1" gradientUnits="userSpaceOnUse" gradientTransform="translate(15.1626 14.525) rotate(37.9308) scale(13.0183 14.7528)">
<stop offset="0.925972" stop-color="#AB9CBB" stop-opacity="0"/>
<stop offset="1" stop-color="#AB9CBB"/>
</radialGradient>
</defs>
</svg>
