<svg width="18" height="18" viewBox="0 0 18 18" fill="none" xmlns="http://www.w3.org/2000/svg">
<g clip-path="url(#clip0_1295_2894)">
<path d="M7.21863 0C3.23674 0 0 3.22284 0 7.18763C0 11.1524 3.23674 14.3753 7.21863 14.3753C11.2005 14.3753 14.4373 11.1524 14.4373 7.18763C14.4373 3.22284 11.1928 0 7.21863 0ZM7.21863 12.8218C4.09832 12.8218 1.55239 10.2945 1.55239 7.17991C1.55239 4.06526 4.09056 1.538 7.21863 1.538C10.3467 1.538 12.8849 4.06526 12.8849 7.17991C12.8849 10.2945 10.3467 12.8218 7.21863 12.8218Z" fill="#8F8B8A"/>
<path d="M17.7672 16.6862L13.8552 12.791C13.5524 12.4896 13.0634 12.4896 12.7607 12.791C12.458 13.0924 12.458 13.5793 12.7607 13.8807L16.6728 17.776C16.828 17.9305 17.022 18.0001 17.2239 18.0001C17.4257 18.0001 17.6197 17.9228 17.775 17.776C18.0777 17.4746 18.0777 16.9877 17.775 16.6862H17.7672Z" fill="#8F8B8A"/>
</g>
<defs>
<clipPath id="clip0_1295_2894">
<rect width="18" height="18" fill="white"/>
</clipPath>
</defs>
</svg>
