<svg width="82" height="82" viewBox="0 0 82 82" fill="none" xmlns="http://www.w3.org/2000/svg">
<circle cx="41" cy="41" r="41" fill="url(#paint0_linear_1241_13999)"/>
<circle cx="41" cy="41" r="41" fill="url(#paint1_linear_1241_13999)"/>
<circle cx="41.0002" cy="40.9999" r="35.453" fill="url(#paint2_linear_1241_13999)"/>
<circle cx="41.0004" cy="41.0026" r="30.9503" fill="url(#paint3_linear_1241_13999)"/>
<circle cx="41.0004" cy="41.0026" r="30.9503" fill="url(#paint4_radial_1241_13999)"/>
<circle cx="41.0004" cy="41.0026" r="30.9503" fill="url(#paint5_radial_1241_13999)"/>
<path d="M45.7847 24.9401C45.7847 24.4983 45.4265 24.1401 44.9847 24.1401H33.3692C33.1483 24.1401 32.9692 24.3192 32.9692 24.5401V31.8056C32.9692 32.0265 33.1483 32.2056 33.3692 32.2056H37.1823C37.3204 32.2056 37.4323 32.3175 37.4323 32.4556V58.3247C37.4323 58.6009 37.6562 58.8247 37.9323 58.8247H45.2847C45.5608 58.8247 45.7847 58.6009 45.7847 58.3247V24.9401Z" fill="#6F3955"/>
<path d="M45.7847 24.9401C45.7847 24.4983 45.4265 24.1401 44.9847 24.1401H33.3692C33.1483 24.1401 32.9692 24.3192 32.9692 24.5401V31.8056C32.9692 32.0265 33.1483 32.2056 33.3692 32.2056H37.1823C37.3204 32.2056 37.4323 32.3175 37.4323 32.4556V58.3247C37.4323 58.6009 37.6562 58.8247 37.9323 58.8247H45.2847C45.5608 58.8247 45.7847 58.6009 45.7847 58.3247V24.9401Z" fill="url(#paint6_linear_1241_13999)"/>
<defs>
<linearGradient id="paint0_linear_1241_13999" x1="62.9155" y1="26.4667" x2="34.3332" y2="54.4735" gradientUnits="userSpaceOnUse">
<stop stop-color="#F4C654"/>
<stop offset="1" stop-color="#DC9729"/>
</linearGradient>
<linearGradient id="paint1_linear_1241_13999" x1="26.6729" y1="83.9922" x2="35.9195" y2="30.3732" gradientUnits="userSpaceOnUse">
<stop stop-color="#FA8547"/>
<stop offset="1" stop-color="#FA8547" stop-opacity="0"/>
</linearGradient>
<linearGradient id="paint2_linear_1241_13999" x1="73.3029" y1="34.8049" x2="41.0002" y2="34.8049" gradientUnits="userSpaceOnUse">
<stop stop-color="#F9A842"/>
<stop offset="1" stop-color="#FAA742"/>
<stop offset="1" stop-color="#FAA742"/>
</linearGradient>
<linearGradient id="paint3_linear_1241_13999" x1="26.6929" y1="37.0776" x2="72.8621" y2="37.0776" gradientUnits="userSpaceOnUse">
<stop stop-color="#FAA945"/>
<stop offset="1" stop-color="#EC9936"/>
</linearGradient>
<radialGradient id="paint4_radial_1241_13999" cx="0" cy="0" r="1" gradientUnits="userSpaceOnUse" gradientTransform="translate(53.0007 41.0026) rotate(180) scale(42.9505 36.5986)">
<stop offset="0.893104" stop-color="#F7B44D" stop-opacity="0"/>
<stop offset="1" stop-color="#F7B44D"/>
</radialGradient>
<radialGradient id="paint5_radial_1241_13999" cx="0" cy="0" r="1" gradientUnits="userSpaceOnUse" gradientTransform="translate(32.9649 41.0026) scale(41.3276 36.2407)">
<stop offset="0.878757" stop-color="#D2801F" stop-opacity="0"/>
<stop offset="0.98268" stop-color="#D2801F"/>
</radialGradient>
<linearGradient id="paint6_linear_1241_13999" x1="42.533" y1="58.8247" x2="42.533" y2="55.4928" gradientUnits="userSpaceOnUse">
<stop stop-color="#693B2E"/>
<stop offset="1" stop-color="#693B2E" stop-opacity="0"/>
</linearGradient>
</defs>
</svg>
