<svg width="52" height="35" viewBox="0 0 52 35" fill="none" xmlns="http://www.w3.org/2000/svg">
<path d="M34.601 33.1002C43.4221 33.1002 50.5731 25.9143 50.5731 17.0501C50.5731 8.18587 43.4221 1 34.601 1C25.7798 1 18.6289 8.18587 18.6289 17.0501C18.6289 25.9143 25.7798 33.1002 34.601 33.1002Z" fill="#FB8500" stroke="#FB8500" stroke-width="2" stroke-miterlimit="10"/>
<path d="M1.16211 17.2148H29.6037" stroke="white" stroke-width="2" stroke-linecap="round" stroke-linejoin="round"/>
<path d="M17.1342 33.2642C25.9553 33.2642 33.1063 26.0784 33.1063 17.2141C33.1063 8.34993 25.9553 1.16406 17.1342 1.16406C8.31305 1.16406 1.16211 8.34993 1.16211 17.2141C1.16211 26.0784 8.31305 33.2642 17.1342 33.2642Z" stroke="#FB8500" stroke-width="2" stroke-miterlimit="10"/>
<path d="M16.9721 33.1002C25.7932 33.1002 32.9441 25.9143 32.9441 17.0501C32.9441 8.18587 25.7932 1 16.9721 1C8.15094 1 1 8.18587 1 17.0501C1 25.9143 8.15094 33.1002 16.9721 33.1002Z" stroke="#FB8500" stroke-width="2" stroke-miterlimit="10"/>
<path d="M26.5033 8.52148L35.1546 17.215L26.5033 25.9086" fill="#FB8500"/>
<path d="M26.5033 8.52148L35.1546 17.215L26.5033 25.9086" stroke="white" stroke-width="2" stroke-linecap="round" stroke-linejoin="round"/>
<path d="M18.7493 17.2148H35.1545" stroke="white" stroke-width="2" stroke-linecap="round" stroke-linejoin="round"/>
</svg>
